<?xml version="1.0" encoding="utf-8"?>
<!-- Generator: Adobe Illustrator 27.8.0, SVG Export Plug-In . SVG Version: 6.00 Build 0)  -->
<svg version="1.1" id="Layer_1" xmlns="http://www.w3.org/2000/svg" xmlns:xlink="http://www.w3.org/1999/xlink" x="0px" y="0px"
	 viewBox="0 0 1640 376" style="enable-background:new 0 0 1640 376;" xml:space="preserve">
<style type="text/css">
	.st0{fill-rule:evenodd;clip-rule:evenodd;fill:#FFFFFF;}
	.st1{fill-rule:evenodd;clip-rule:evenodd;fill:#0051D2;}
	.st2{fill-rule:evenodd;clip-rule:evenodd;fill:#14E0A1;}
</style>
<path class="st0" d="M1357.7,310.9h46.6v-179h-46.6V310.9z"/>
<path class="st0" d="M1357.7,111.4h46.6V64.9h-46.6V111.4z"/>
<path class="st0" d="M1286.6,310.9h46.6v-46.5h-46.6V310.9z"/>
<path class="st0" d="M957.2,286.6c2.7,7.2,6.9,12.8,11.8,17.2c5,4.5,10.9,8,17.8,9.9c7.1,2,14.8,2.7,23.1,2.7
	c8.5,0,16.1-0.9,22.6-2.6c6-1.6,11.8-3.9,17.1-6.8v-32.9c-8.5,3.7-16.5,5-25.6,5.4c-9.6,0.4-15.3-2.3-20-6.8
	c-5-4.7-7.6-10.9-7.6-21.2v-99.4h53.2v-40.8h-53.2V64.9H953v46.5h-25.9v40.8H953V259C953,270,954.4,279.3,957.2,286.6z"/>
<path class="st0" d="M676.5,172h-116v48.1h65.1c-3.4,13.7-10.1,26.1-19.8,35.9c-14.5,14.8-34.7,23-56.8,23
	c-45.8,0-83.1-37.2-83.1-83c0-45.7,37.3-83,83.1-83c24.5,0,47.1,10.5,62.7,28.6l37.3-30.4C624.4,82.3,587.7,65,549.1,65
	c-72.4,0-131.2,58.8-131.2,131.1s58.9,131.1,131.2,131.1c35.1,0,67.5-12.6,91.2-36.8c19.9-20.3,33-48.6,35.6-76.9
	C677.1,199.5,677.2,185.8,676.5,172z"/>
<path class="st0" d="M1168.6,148.6c26.7,0,49.5,16.8,58.4,40.4h-116.8C1119.1,165.3,1141.8,148.6,1168.6,148.6z M1273.1,226.9
	c0.8-5.2,1.2-10.6,1.2-16c0-58.3-47.3-105.6-105.8-105.6c-58.4,0-105.7,47.3-105.7,105.6s47.3,105.6,105.7,105.6
	c40.1,0,74.9-22.2,92.9-55l-39.1-18.9c-10.9,18.4-30.9,30.7-53.8,30.7c-28.9,0-53.3-19.7-60.3-46.4h120.7c0,0,0,0,0,0.1h44.2V226.9z
	"/>
<path class="st0" d="M797.7,273.2c-34.5,0-62.4-27.9-62.4-62.3s28-62.3,62.4-62.3c34.5,0,62.4,27.9,62.4,62.3
	C860.2,245.3,832.2,273.2,797.7,273.2z M797.7,105.5c-58.4,0-105.7,47.3-105.7,105.6s47.3,105.6,105.7,105.6s105.7-47.3,105.7-105.6
	S856.1,105.5,797.7,105.5z"/>
<g>
	<path class="st0" d="M860.2,310.9h43.3V111.3h-43.3V310.9z"/>
	<path class="st0" d="M1534.3,273.2c-34.5,0-62.4-27.9-62.4-62.3s27.9-62.3,62.4-62.3s62.4,27.9,62.4,62.3
		C1596.7,245.3,1568.7,273.2,1534.3,273.2z M1534.3,105.3c-58.4,0-105.7,47.3-105.7,105.6s47.3,105.6,105.7,105.6
		S1640,269.2,1640,210.9S1592.7,105.3,1534.3,105.3z"/>
	<path class="st1" d="M187.7,290.6c-57,0-103.3-46.2-103.3-103.1c0-57,46.2-103.1,103.3-103.1V0C84.1,0,0,83.9,0,187.5
		S84.1,375,187.7,375c103.7,0,187.7-83.9,187.7-187.5H291C291,244.5,244.8,290.6,187.7,290.6z"/>
	<path class="st2" d="M187.7,187.5H291V84.4H187.7V187.5z"/>
</g>
</svg>
