<svg width="397" height="53" viewBox="0 0 397 53" fill="none" xmlns="http://www.w3.org/2000/svg">
<path d="M34.0653 42.424H14.0493L10.7373 52H0.15325L18.2253 1.672H29.9613L48.0333 52H37.3773L34.0653 42.424ZM31.3293 34.36L24.0573 13.336L16.7852 34.36H31.3293ZM97.7723 52H87.6923L64.8683 17.512V52H54.7883V1.672H64.8683L87.6923 36.232V1.672H97.7723V52ZM125.302 1.744C130.582 1.744 135.214 2.776 139.198 4.84C143.23 6.904 146.326 9.856 148.486 13.696C150.694 17.488 151.798 21.904 151.798 26.944C151.798 31.984 150.694 36.4 148.486 40.192C146.326 43.936 143.23 46.84 139.198 48.904C135.214 50.968 130.582 52 125.302 52H107.734V1.744H125.302ZM124.942 43.432C130.222 43.432 134.302 41.992 137.182 39.112C140.062 36.232 141.502 32.176 141.502 26.944C141.502 21.712 140.062 17.632 137.182 14.704C134.302 11.728 130.222 10.24 124.942 10.24H117.814V43.432H124.942ZM231.291 1.744V52H221.211V19.312L207.747 52H200.115L186.579 19.312V52H176.499V1.744H187.947L203.931 39.112L219.915 1.744H231.291ZM264.585 52.504C259.881 52.504 255.561 51.4 251.625 49.192C247.689 46.984 244.569 43.936 242.265 40.048C239.961 36.112 238.809 31.672 238.809 26.728C238.809 21.832 239.961 17.44 242.265 13.552C244.569 9.616 247.689 6.544 251.625 4.336C255.561 2.128 259.881 1.024 264.585 1.024C269.337 1.024 273.657 2.128 277.545 4.336C281.481 6.544 284.577 9.616 286.833 13.552C289.137 17.44 290.289 21.832 290.289 26.728C290.289 31.672 289.137 36.112 286.833 40.048C284.577 43.936 281.481 46.984 277.545 49.192C273.609 51.4 269.289 52.504 264.585 52.504ZM264.585 43.504C267.609 43.504 270.273 42.832 272.577 41.488C274.881 40.096 276.681 38.128 277.977 35.584C279.273 33.04 279.921 30.088 279.921 26.728C279.921 23.368 279.273 20.44 277.977 17.944C276.681 15.4 274.881 13.456 272.577 12.112C270.273 10.768 267.609 10.096 264.585 10.096C261.561 10.096 258.873 10.768 256.521 12.112C254.217 13.456 252.417 15.4 251.121 17.944C249.825 20.44 249.177 23.368 249.177 26.728C249.177 30.088 249.825 33.04 251.121 35.584C252.417 38.128 254.217 40.096 256.521 41.488C258.873 42.832 261.561 43.504 264.585 43.504ZM323.708 52L312.62 32.416H307.868V52H297.788V1.744H316.652C320.54 1.744 323.852 2.44 326.588 3.832C329.324 5.176 331.364 7.024 332.708 9.376C334.1 11.68 334.796 14.272 334.796 17.152C334.796 20.464 333.836 23.464 331.916 26.152C329.996 28.792 327.14 30.616 323.348 31.624L335.372 52H323.708ZM307.868 24.856H316.292C319.028 24.856 321.068 24.208 322.412 22.912C323.756 21.568 324.428 19.72 324.428 17.368C324.428 15.064 323.756 13.288 322.412 12.04C321.068 10.744 319.028 10.096 316.292 10.096H307.868V24.856ZM353.993 9.88V22.48H370.913V30.472H353.993V43.792H373.073V52H343.913V1.672H373.073V9.88H353.993ZM395.266 0.879997L394.114 35.656H385.618L384.394 0.879997H395.266ZM390.082 52.504C388.258 52.504 386.746 51.952 385.546 50.848C384.394 49.696 383.818 48.28 383.818 46.6C383.818 44.92 384.394 43.528 385.546 42.424C386.746 41.272 388.258 40.696 390.082 40.696C391.858 40.696 393.322 41.272 394.474 42.424C395.626 43.528 396.202 44.92 396.202 46.6C396.202 48.28 395.626 49.696 394.474 50.848C393.322 51.952 391.858 52.504 390.082 52.504Z" fill="#6E7377"/>
</svg>
