<?xml version="1.0" encoding="utf-8"?>
<!-- Generator: Adobe Illustrator 27.8.0, SVG Export Plug-In . SVG Version: 6.00 Build 0)  -->
<svg version="1.1" id="Layer_1" xmlns="http://www.w3.org/2000/svg" xmlns:xlink="http://www.w3.org/1999/xlink" x="0px" y="0px"
	 viewBox="0 0 180 180" style="enable-background:new 0 0 180 180;" xml:space="preserve">
<style type="text/css">
	.st0{fill:none;stroke:#4CEE98;stroke-width:2;stroke-miterlimit:10;}
</style>
<path class="st0" d="M18,81.4v17.2c0,29.9,32.2,54.1,72,54.1c39.7,0,72-24.2,72-54.1V81.4 M18,81.4c0-29.9,32.3-54.1,72-54.1
	c39.8,0,72,24.2,72,54.1 M18,81.4c0,29.9,32.3,54.1,72,54.1s72-24.2,72-54.1 M142.2,118.7v16.9 M38.4,119.2V136 M148.8,112.6v17.3
	 M31.8,113.4v16.9 M155.4,103.9v17.3 M25.2,105.2V122 M89.9,127.8c34.3,0,62.2-21.2,62.2-47.4S124.3,33,89.9,33S27.7,54.2,27.7,80.4
	S55.5,127.8,89.9,127.8z M70.2,58.5h39.2l-9,13.7H72.9c-6.1,0-11,3.7-11,8.3c0,2.5,1.5,4.7,3.8,6.2L56.8,100
	C47.4,96.3,41,89,41,80.5C40.9,68.3,54,58.5,70.2,58.5z M123.9,60.9c9.5,3.6,15.9,11,15.9,19.6c0,12.1-13.1,22-29.2,22H71.3
	l9.1-13.7h27.5c6.1,0,11-3.7,11-8.3c0-2.5-1.5-4.7-3.8-6.2L123.9,60.9z"/>
</svg>
