<?xml version="1.0" encoding="utf-8"?>
<!-- Generator: Adobe Illustrator 27.8.0, SVG Export Plug-In . SVG Version: 6.00 Build 0)  -->
<svg version="1.1" id="Layer_1" xmlns="http://www.w3.org/2000/svg" xmlns:xlink="http://www.w3.org/1999/xlink" x="0px" y="0px"
	 viewBox="0 0 180 180" style="enable-background:new 0 0 180 180;" xml:space="preserve">
<style type="text/css">
	.st0{fill:none;stroke:#4CEE98;stroke-width:2;stroke-miterlimit:10;}
</style>
<path class="st0" d="M124.7,112.2v25.6 M137.5,125h-25.6 M74.8,83.3V47.9 M65.7,84.1V38 M55,84.1V56.9 M45.1,84.1V67.7 M34.4,83.3
	V48.7 M74.4,24.8h-40c-5.5,0-9.9,4.5-9.9,9.9v40c0,5.5,4.5,9.9,9.9,9.9h40c5.5,0,9.9-4.5,9.9-9.9v-40C84.4,29.3,79.9,24.8,74.4,24.8
	z M144.7,24.8h-40c-5.5,0-9.9,4.5-9.9,9.9v40c0,5.5,4.5,9.9,9.9,9.9h40c5.5,0,9.9-4.5,9.9-9.9v-40C154.7,29.3,150.2,24.8,144.7,24.8
	z M74.4,95.1h-40c-5.5,0-9.9,4.5-9.9,9.9v40c0,5.5,4.5,9.9,9.9,9.9h40c5.5,0,9.9-4.5,9.9-9.9v-40C84.4,99.6,79.9,95.1,74.4,95.1z
	 M144.7,155h-40c-5.5,0-9.9-4.5-9.9-9.9v-40c0-5.5,4.5-9.9,9.9-9.9h40c5.5,0,9.9,4.5,9.9,9.9v40C154.7,150.5,150.2,155,144.7,155z
	 M125,32.2c-4.4,0-8.7,1.3-12.4,3.7c-3.7,2.4-6.5,5.9-8.2,10c-1.7,4.1-2.1,8.5-1.3,12.9c0.8,4.4,3,8.3,6.1,11.4s7.1,5.2,11.4,6.1
	c4.3,0.9,8.8,0.4,12.9-1.3c4.1-1.7,7.5-4.5,10-8.2c2.4-3.7,3.7-8,3.7-12.4H125V32.2z M147.3,54.5c0-4-1.1-7.9-3.1-11.4
	c-2-3.4-5-6.3-8.5-8.2c-3.5-1.9-7.5-2.8-11.5-2.7c-4,0.2-7.9,1.4-11.2,3.6c-3.4,2.2-6.1,5.2-7.8,8.8c-1.8,3.6-2.5,7.6-2.2,11.6
	c0.3,4,1.7,7.8,4,11.1c2.3,3.3,5.5,5.9,9.1,7.5l9.1-20.3H147.3z M29.5,131.1h3.3v14h-3.3V131.1z M38.5,122h4.1v13.2h-4.1V122z
	 M47.6,126.1h4.1v14.8h-4.1V126.1z M56.6,127.8h4.1v7.4h-4.1V127.8z M66.5,109.7h3.3v19.8h-3.3V109.7z M75.6,117.9h4.1v14h-4.1
	V117.9z M31.9,15.8h116.2c8.6,0,15.7,7,15.7,15.7v117c0,8.6-7,15.7-15.7,15.7H31.9c-8.6,0-15.7-7-15.7-15.7v-117
	C16.3,22.8,23.3,15.8,31.9,15.8z"/>
</svg>
