<?xml version="1.0" encoding="utf-8"?>
<!-- Generator: Adobe Illustrator 27.8.0, SVG Export Plug-In . SVG Version: 6.00 Build 0)  -->
<svg version="1.1" id="Layer_1" xmlns="http://www.w3.org/2000/svg" xmlns:xlink="http://www.w3.org/1999/xlink" x="0px" y="0px"
	 viewBox="0 0 180 180" style="enable-background:new 0 0 180 180;" xml:space="preserve">
<style type="text/css">
	.st0{fill:none;stroke:#4CEE98;stroke-width:2;stroke-miterlimit:10;}
</style>
<path class="st0" d="M99.1,83.4c0,17.1-13.8,30.9-30.9,30.9s-30.9-13.9-30.9-30.9 M99.1,83.4c0-17-13.8-30.9-30.9-30.9 M99.1,83.4
	H82.7 M68.2,52.5c-17.1,0-30.9,13.8-30.9,30.9 M68.2,52.5v16.1 M37.3,83.4h15.4 M46.3,61.6l11.2,11.1 M90.1,105.2L78.7,93.8
	 M68.2,98.5v15.7 M25.4,135.5v7c0,3.2,2.6,5.9,5.9,5.9h5.3c3.2,0,5.9-2.6,5.9-5.9v-7 M103,135.5v7c0,3.2,2.6,5.9,5.9,5.9h5.3
	c3.2,0,5.9-2.6,5.9-5.9v-7 M135.7,135.1v7.4c0,3.2,2.6,5.9,5.9,5.9h5.3c3.2,0,5.9-2.6,5.9-5.9v-7.4 M46.3,105.2l11.4-11.4
	 M90.1,61.6L79.4,72.2 M107.7,31.7h44.8c6.1,0,11.1,4.9,11.1,11v81.4c0,6.1-5,11-11.1,11h-44.8 M123.5,126.3h21.8 M158.9,126.3h-9.1
	 M108.9,31.7H27.5c-6.1,0-11.1,4.9-11.1,11v81.4c0,6.1,5,11,11.1,11H109c6.1,0,11.1-4.9,11.1-11V42.7
	C120,36.6,115.1,31.7,108.9,31.7z M100.4,42.6H36.1c-4.8,0-8.7,3.9-8.7,8.7v64.2c0,4.8,3.9,8.7,8.7,8.7h64.3c4.8,0,8.7-3.9,8.7-8.7
	V51.2C109.1,46.5,105.2,42.6,100.4,42.6z M68.2,98c8.1,0,14.6-6.5,14.6-14.6c0-8.1-6.5-14.6-14.6-14.6c-8.1,0-14.6,6.5-14.6,14.6
	C53.6,91.4,60.1,98,68.2,98z"/>
</svg>
