<?xml version="1.0" encoding="utf-8"?>
<!-- Generator: Adobe Illustrator 27.8.0, SVG Export Plug-In . SVG Version: 6.00 Build 0)  -->
<svg version="1.1" id="Layer_1" xmlns="http://www.w3.org/2000/svg" xmlns:xlink="http://www.w3.org/1999/xlink" x="0px" y="0px"
	 viewBox="0 0 180 180" style="enable-background:new 0 0 180 180;" xml:space="preserve">
<style type="text/css">
	.st0{fill:none;stroke:#4CEE98;stroke-width:2;stroke-miterlimit:10;}
</style>
<path class="st0" d="M31.6,45.1H19.8 M31.6,60H19.8 M31.6,75H19.8 M31.6,89.9H19.8 M31.6,104.8H19.8 M31.6,119.8H19.8 M31.6,134.6
	H19.8 M161,45.1h-11.9 M161,60h-11.9 M161,75h-11.9 M161,75c0,2,1.6,3.6,3.6,3.6c1.9,0,3.5-1.7,3.6-3.6c0-2-1.6-3.6-3.6-3.6
	S161,73.1,161,75z M161,89.9h-11.9 M161,104.8h-11.9 M161,119.8h-11.9 M161,119.8c0,2,1.6,3.6,3.6,3.6c1.9,0,3.6-1.6,3.6-3.6
	s-1.6-3.6-3.6-3.6S161,117.8,161,119.8z M161,134.6h-11.9 M45.6,148.6v11.9 M60.5,148.6v11.9 M75.4,148.6v11.9 M90.4,148.6v11.9
	 M105.3,148.6v11.9 M120.2,148.6v11.9 M135.1,148.6v11.9 M45.6,19.3v11.9 M60.5,19.3v11.9 M75.4,19.3v11.9 M90.4,19.3v11.9
	 M105.3,19.3v11.9 M120.2,19.3v11.9 M135.1,19.3v11.9 M72,82.2v8.6l-4.5,4.5 M57.9,93.8v-18l3.2-3.6 M65.8,55.6
	c9.5-14,21.4-8.1,21.4-2.2c0,0,0,49.9,0,68.4c0,5.7-2.5,11.1-11.7,11.1c-9.7,0-14-6.5-17.1-14.2c-0.2-0.5-0.4-0.9-0.5-1.6
	 M65.8,55.6c-0.8,1.2-1.8,2.6-2.5,4.1L65.8,55.6z M69.9,98c-2.2-2.9-5.4-4.7-9.2-4.7c-6.5,0-11.5,5.4-11.5,12s5.2,12,11.5,12
	c3.2,0,6.3-1.4,8.3-3.6l2.9-2.9 M51.6,98.2c-5.2-5-5.4-9.9-5.4-9.9c-0.7-8.1,6.1-12.6,6.1-12.6c-0.5-5.2,1.1-9.2,4.3-12.4
	c4.4-4.4,9.7-3.9,12.9-3.1 M69.9,112.9l4.5,4.7v2.3 M108.5,82.2v8.6l4.5,4.5 M122.7,93.8v-18l-3.2-3.6 M114.8,55.6
	c-9.5-14-21.4-8.1-21.4-2.2c0,0,0,49.9,0,68.4c0,5.7,2.5,11.1,11.7,11.1c9.7,0,14-6.5,17.1-14.2c0.2-0.5,0.4-0.9,0.5-1.6
	 M114.8,55.6c0.8,1.2,1.8,2.6,2.5,4.1L114.8,55.6z M110.7,98c2.2-2.9,5.4-4.7,9.2-4.7c6.5,0,11.5,5.4,11.5,12s-5.2,12-11.5,12
	c-3.2,0-6.3-1.4-8.3-3.6l-2.9-2.9 M129,98.2c5.2-5,5.4-9.9,5.4-9.9c0.7-8.1-6.1-12.6-6.1-12.6c0.5-5.2-1.1-9.2-4.3-12.4
	c-4.4-4.4-9.7-3.9-12.9-3.1 M110.7,112.9l-4.5,4.7v2.3 M136.4,148.6h-92c-7,0-12.8-5.7-12.8-12.8v-92c0-7,5.7-12.8,12.8-12.8h92
	c7,0,12.8,5.7,12.8,12.8v92C149.1,143.1,143.5,148.6,136.4,148.6z M130.1,140.5H50.7c-6.1,0-11-5-11-11V50.2c0-6.1,5-11,11-11h79.2
	c6.1,0,11,5,11,11v79.2C141,135.8,136.2,140.5,130.1,140.5z M75.4,110.9c-2,0-3.6-1.6-3.6-3.6s1.6-3.6,3.6-3.6s3.6,1.6,3.6,3.6
	S77.4,110.9,75.4,110.9z M71.9,82.2c-2,0-3.6-1.6-3.6-3.6s1.6-3.6,3.6-3.6s3.6,1.6,3.6,3.6S73.8,82.2,71.9,82.2z M64.7,73.2
	c-2,0-3.6-1.6-3.6-3.6s1.6-3.6,3.6-3.6s3.6,1.6,3.6,3.6C68.3,71.6,66.6,73.2,64.7,73.2z M73.7,64.2c-2,0-3.6-1.6-3.6-3.6
	s1.6-3.6,3.6-3.6s3.6,1.6,3.6,3.6S75.6,64.2,73.7,64.2z M74.5,128.4c-2,0-3.6-1.6-3.6-3.6s1.6-3.6,3.6-3.6s3.6,1.6,3.6,3.6
	S76.5,128.4,74.5,128.4z M105.1,110.9c2,0,3.6-1.6,3.6-3.6s-1.6-3.6-3.6-3.6s-3.6,1.6-3.6,3.6S103.1,110.9,105.1,110.9z M108.7,82.2
	c2,0,3.6-1.6,3.6-3.6s-1.6-3.6-3.6-3.6s-3.6,1.6-3.6,3.6S106.7,82.2,108.7,82.2z M115.9,73.2c2,0,3.6-1.6,3.6-3.6s-1.6-3.6-3.6-3.6
	s-3.6,1.6-3.6,3.6C112.3,71.6,113.9,73.2,115.9,73.2z M106.9,64.2c2,0,3.6-1.6,3.6-3.6s-1.6-3.6-3.6-3.6s-3.6,1.6-3.6,3.6
	S104.9,64.2,106.9,64.2z M106,128.4c2,0,3.6-1.6,3.6-3.6s-1.6-3.6-3.6-3.6s-3.6,1.6-3.6,3.6S104,128.4,106,128.4z M15.4,63.6
	c-2,0-3.6-1.6-3.6-3.6s1.6-3.6,3.6-3.6S19,58,19,60S17.4,63.6,15.4,63.6z M15.4,108.4c-2,0-3.6-1.6-3.6-3.6s1.6-3.6,3.6-3.6
	s3.6,1.6,3.6,3.6C19,106.8,17.4,108.4,15.4,108.4z M60.5,19c-2,0-3.6-1.6-3.6-3.6s1.6-3.6,3.6-3.6s3.6,1.6,3.6,3.6S62.5,19,60.5,19z
	 M120.2,168.1c-2,0-3.6-1.6-3.6-3.6s1.6-3.6,3.6-3.6s3.6,1.6,3.6,3.6S122.1,168.1,120.2,168.1z"/>
</svg>
