<?xml version="1.0" encoding="utf-8"?>
<!-- Generator: Adobe Illustrator 27.8.0, SVG Export Plug-In . SVG Version: 6.00 Build 0)  -->
<svg version="1.1" id="Layer_1" xmlns="http://www.w3.org/2000/svg" xmlns:xlink="http://www.w3.org/1999/xlink" x="0px" y="0px"
	 viewBox="0 0 180 180" style="enable-background:new 0 0 180 180;" xml:space="preserve">
<style type="text/css">
	.st0{fill:none;stroke:#4CEE98;stroke-width:2;stroke-miterlimit:10;}
</style>
<path class="st0" d="M76.2,122.6l-2.7,19.3c-0.6,4-3.9,6.9-7.9,6.8c-5.4,0-9.2-5.1-7.7-10.2l3.7-12.7c0.6-1.9,2.3-3.2,4.3-3.2H76.2z
	 M76.2,122.6H90 M76.2,122.6l-2.4,16.9c-0.7,4.9,3.1,9.3,8.1,9.3c4.5,0.1,8.1-3.6,8.1-8.1 M90,122.6h13.9l2.4,16.9
	c0.6,4.9-3.2,9.4-8.1,9.4c-4.5,0-8.2-3.7-8.2-8.2 M90,122.6v18.1 M21.5,177.6h137.3 M76.5,76.1v-29H63.8l25.6-35l25.6,35h-12.7v44.2
	 M50.8,177.6V93.3H38l25.6-35l25.6,35H76.5v29.4 M102.2,122.6v-14.4H89.5l25.6-35l25.6,35H128v68.9 M53.9,2.4v15.8 M61.8,10.3H46
	 M27.7,45.2V61 M35.6,53.1H19.8 M30.5,110.4v15.8 M38.4,118.3H22.6 M152.3,86v15.8 M160.2,93.9h-15.8 M127.9,55v15.8 M135.8,62.8
	H120 M134.5,12.5v15.8 M142.4,20.4h-15.8 M59.3,146.7v13.7 M59.3,160.4h61 M59.3,160.4v17.2h61v-17.2 M120.3,160.4v-13.7
	 M114.5,148.9c-4,0-7.3-2.9-7.9-6.8l-2.7-19.4h10.3c2,0,3.7,1.3,4.3,3.2l3.7,12.7C123.6,143.8,119.8,148.9,114.5,148.9z"/>
</svg>
