<?xml version="1.0" encoding="utf-8"?>
<!-- Generator: Adobe Illustrator 27.8.0, SVG Export Plug-In . SVG Version: 6.00 Build 0)  -->
<svg version="1.1" id="Layer_1" xmlns="http://www.w3.org/2000/svg" xmlns:xlink="http://www.w3.org/1999/xlink" x="0px" y="0px"
	 viewBox="0 0 180 180" style="enable-background:new 0 0 180 180;" xml:space="preserve">
<style type="text/css">
	.st0{fill:none;stroke:#4CEE98;stroke-width:2;stroke-miterlimit:10;}
</style>
<path class="st0" d="M19.5,41.5h33.8 M19.5,48H48 M19.5,54.5h23.2 M19.5,61.1h13 M19.5,67.6h15.9 M19.5,74.1h7.3 M19.5,80.6h4.1
	 M19.5,87.1H26 M19.5,93.7h11.4 M19.5,100.2h14.7 M19.5,106.7h13 M19.5,113.2h23.6 M19.5,119.8h34.2 M95.7,80.9v-6.8 M95.7,112.2
	v-6.8 M110.4,116.3v-6.8 M110.4,93.1v-6.8 M125.1,104v-6.8 M125.1,72.8V66 M139.7,52.4v-6.8 M139.7,91.8V85 M154.4,102.4v-6.8
	 M154.4,71.1v-6.8 M41.5,151.5h97.8 M71.7,132.9h36.5v18.6H71.7V132.9z M20.6,28.5h138.8c6.4,0,11.7,5.2,11.7,11.7v80.9
	c0,6.4-5.2,11.7-11.7,11.7H20.6c-6.4,0-11.7-5.2-11.7-11.7V40.2C8.9,33.7,14.2,28.5,20.6,28.5z M20.1,34.2H71c3.5,0,6.3,2.8,6.3,6.3
	v80.2c0,3.5-2.8,6.3-6.3,6.3H20.1c-3.5,0-6.3-2.8-6.3-6.3V40.5C13.8,37,16.7,34.2,20.1,34.2z M91.1,34.2h68c3.5,0,6.3,2.8,6.3,6.3
	v80.2c0,3.5-2.8,6.3-6.3,6.3h-68c-3.5,0-6.3-2.8-6.3-6.3V40.5C84.8,37,87.6,34.2,91.1,34.2z M99.4,80.9H92v24.5h7.3L99.4,80.9z
	 M114,93.1h-7.3v16.3h7.3V93.1z M128.7,72.8h-7.3v24.5h7.3V72.8z M143.4,52.4h-7.3V85h7.3V52.4z M158.1,71.1h-7.3v24.5h7.3V71.1z"/>
</svg>
