<?xml version="1.0" encoding="UTF-8"?>
<svg id="Layer_1" data-name="Layer 1" xmlns="http://www.w3.org/2000/svg" viewBox="0 0 94 176.6">
  <defs>
    <style>
      .cls-1 {
        fill: none;
        stroke: #4cee98;
        stroke-miterlimit: 10;
        stroke-width: 2px;
      }
    </style>
  </defs>
  <path class="cls-1" d="m27.5,64.5c0,5.5,8.7,9.9,19.5,9.9s19.5-4.4,19.5-9.9v-11.2m0,0c0,5.5-8.7,9.9-19.5,9.9s-19.5-4.4-19.5-9.9,8.7-9.9,19.5-9.9,19.5,4.4,19.5,9.9Zm-34.2,17.7v14.9L2.5,146.2c-1,1.9-1.5,3.9-1.5,6,0,12.9,20.6,23.4,46,23.4s46-10.5,46-23.4c0-2.1-.5-4.1-1.5-6l-29.8-60.3v-14.9m-34.1-17.6v11.2m19.4,64.5c15.5,0,28-6.4,28-14.3s-12.6-14.3-28-14.3-28,6.4-28,14.3,12.5,14.3,28,14.3Zm-.1-70.6c7.3,0,13.3-2.5,13.3-5.6s-6-5.6-13.3-5.6-13.3,2.5-13.3,5.6,5.9,5.6,13.3,5.6Zm-24.9,86.7c2.6,0,4.7-2.1,4.7-4.7s-2.1-4.7-4.7-4.7-4.7,2.1-4.7,4.7,2.1,4.7,4.7,4.7Zm52.3-6.1c2.1,0,3.8-1.7,3.8-3.8s-1.7-3.8-3.8-3.8-3.8,1.7-3.8,3.8,1.7,3.8,3.8,3.8ZM47.3,9.6c2.4,0,4.3-1.9,4.3-4.3s-1.9-4.3-4.3-4.3-4.3,1.9-4.3,4.3,1.9,4.3,4.3,4.3Zm-12.4,11.2c1.7,0,3-1.3,3-3s-1.3-3-3-3-3,1.3-3,3c0,1.6,1.3,3,3,3Zm19.3,14.6c4.3,0,7.7-3.5,7.7-7.7s-3.5-7.7-7.7-7.7-7.7,3.5-7.7,7.7c-.1,4.2,3.4,7.7,7.7,7.7Zm7.7,127c4.7,0,8.6-3.6,8.6-8.2s-3.8-8.2-8.6-8.2-8.6,3.7-8.6,8.2,3.9,8.2,8.6,8.2Z"/>
</svg>