<?xml version="1.0" encoding="utf-8"?>
<!-- Generator: Adobe Illustrator 27.8.0, SVG Export Plug-In . SVG Version: 6.00 Build 0)  -->
<svg version="1.1" id="Layer_1" xmlns="http://www.w3.org/2000/svg" xmlns:xlink="http://www.w3.org/1999/xlink" x="0px" y="0px"
	 viewBox="0 0 244 174" style="enable-background:new 0 0 244 174;" xml:space="preserve">
<style type="text/css">
	.st0{fill:url(#SVGID_1_);stroke:#000000;stroke-width:3;}
	.st1{fill:url(#SVGID_00000148644697104781511060000017627975049989440906_);stroke:#000000;stroke-width:3;}
	.st2{fill:url(#SVGID_00000032619205435617283300000006628706326296430734_);stroke:#000000;stroke-width:3;}
	.st3{fill:url(#SVGID_00000111898978742120219520000014292103180232444298_);stroke:#000000;stroke-width:3;}
	.st4{fill:url(#SVGID_00000024685013980623969040000010060241655722122885_);stroke:#000000;stroke-width:3;}
	.st5{fill:url(#SVGID_00000070830078980279536110000010932805799407188355_);stroke:#000000;stroke-width:3;}
	.st6{fill:none;stroke:url(#SVGID_00000054236023172437158590000007540584591617178798_);stroke-width:2.9539;}
	
		.st7{fill:url(#SVGID_00000098940928122431098490000015543741405564742546_);stroke:url(#SVGID_00000016785699284156847580000015351012495867397521_);stroke-width:3;}
	.st8{fill:url(#SVGID_00000029747409110039533660000012813890186976229032_);}
</style>
<g>
	<linearGradient id="SVGID_1_" gradientUnits="userSpaceOnUse" x1="195.3904" y1="112.9376" x2="210.8542" y2="112.9376">
		<stop  offset="0" style="stop-color:#632409"/>
		<stop  offset="0.5731" style="stop-color:#FF9916"/>
		<stop  offset="1" style="stop-color:#FFDA3B"/>
	</linearGradient>
	<path class="st0" d="M195.4,125.9L195.4,125.9l0-25.9h15.5v10.5C210.9,119,203.9,125.9,195.4,125.9z"/>
	
		<linearGradient id="SVGID_00000135677157241579486860000000873187841628934576_" gradientUnits="userSpaceOnUse" x1="195.3904" y1="87" x2="226.3179" y2="87">
		<stop  offset="0" style="stop-color:#632409"/>
		<stop  offset="0.5731" style="stop-color:#FF9916"/>
		<stop  offset="1" style="stop-color:#FFDA3B"/>
	</linearGradient>
	<path style="fill:url(#SVGID_00000135677157241579486860000000873187841628934576_);stroke:#000000;stroke-width:3;" d="M210.9,100
		h-15.5V74h30.9v10.5C226.3,93,219.4,100,210.9,100z"/>
	
		<linearGradient id="SVGID_00000180344087254024633040000007504689926972452996_" gradientUnits="userSpaceOnUse" x1="195.3904" y1="61.0624" x2="241.7816" y2="61.0624">
		<stop  offset="0" style="stop-color:#632409"/>
		<stop  offset="0.5731" style="stop-color:#FF9916"/>
		<stop  offset="1" style="stop-color:#FFDA3B"/>
	</linearGradient>
	<path style="fill:url(#SVGID_00000180344087254024633040000007504689926972452996_);stroke:#000000;stroke-width:3;" d="M226.3,74
		h-30.9V48.1h42.9c1.9,0,3.5,1.6,3.5,3.5v7C241.8,67.1,234.9,74,226.3,74z"/>
	
		<linearGradient id="SVGID_00000047761177902066314420000002206910045003117997_" gradientUnits="userSpaceOnUse" x1="12969.0469" y1="112.9376" x2="12984.5107" y2="112.9376" gradientTransform="matrix(-1 0 0 1 13017.6572 0)">
		<stop  offset="0" style="stop-color:#632409"/>
		<stop  offset="0.5731" style="stop-color:#FF9916"/>
		<stop  offset="1" style="stop-color:#FFDA3B"/>
	</linearGradient>
	<path style="fill:url(#SVGID_00000047761177902066314420000002206910045003117997_);stroke:#000000;stroke-width:3;" d="
		M48.6,125.9L48.6,125.9l0-25.9H33.1v10.5C33.1,119,40.1,125.9,48.6,125.9z"/>
	
		<linearGradient id="SVGID_00000011751807204117372410000005714446836321993088_" gradientUnits="userSpaceOnUse" x1="12969.0469" y1="87" x2="12999.9746" y2="87" gradientTransform="matrix(-1 0 0 1 13017.6572 0)">
		<stop  offset="0" style="stop-color:#632409"/>
		<stop  offset="0.5731" style="stop-color:#FF9916"/>
		<stop  offset="1" style="stop-color:#FFDA3B"/>
	</linearGradient>
	<path style="fill:url(#SVGID_00000011751807204117372410000005714446836321993088_);stroke:#000000;stroke-width:3;" d="M33.1,100
		h15.5V74H17.7v10.5C17.7,93,24.6,100,33.1,100z"/>
	
		<linearGradient id="SVGID_00000098220030716512212430000012351216782219448757_" gradientUnits="userSpaceOnUse" x1="12969.0469" y1="61.0624" x2="13015.4385" y2="61.0624" gradientTransform="matrix(-1 0 0 1 13017.6572 0)">
		<stop  offset="0" style="stop-color:#632409"/>
		<stop  offset="0.5731" style="stop-color:#FF9916"/>
		<stop  offset="1" style="stop-color:#FFDA3B"/>
	</linearGradient>
	<path style="fill:url(#SVGID_00000098220030716512212430000012351216782219448757_);stroke:#000000;stroke-width:3;" d="M17.7,74
		h30.9V48.1H5.7c-1.9,0-3.5,1.6-3.5,3.5v7C2.2,67.1,9.1,74,17.7,74z"/>
	<g>
		
			<linearGradient id="SVGID_00000106116669655917504270000000501387983136816307_" gradientUnits="userSpaceOnUse" x1="-192.8766" y1="948.9979" x2="-91.128" y2="890.2533" gradientTransform="matrix(1 0 0 1 262 -831.5)">
			<stop  offset="0" style="stop-color:#FF9916"/>
			<stop  offset="1" style="stop-color:#FFDA3B"/>
		</linearGradient>
		<path style="fill:none;stroke:url(#SVGID_00000106116669655917504270000000501387983136816307_);stroke-width:2.9539;" d="
			M48.6,44.6L122,2.3l73.4,42.3v84.7L122,171.7l-73.4-42.4L48.6,44.6z"/>
		
			<linearGradient id="SVGID_00000067227338379059335440000011850593723675202977_" gradientUnits="userSpaceOnUse" x1="122" y1="164.7" x2="122" y2="9.3">
			<stop  offset="0" style="stop-color:#1C0606"/>
			<stop  offset="0.9987" style="stop-color:#59160A"/>
		</linearGradient>
		
			<linearGradient id="SVGID_00000052092646607496535800000017713521584637432455_" gradientUnits="userSpaceOnUse" x1="-188.5914" y1="946.5264" x2="-95.0886" y2="892.5425" gradientTransform="matrix(1 0 0 1 262 -831.5)">
			<stop  offset="0" style="stop-color:#FF9916"/>
			<stop  offset="1" style="stop-color:#FFDA3B"/>
		</linearGradient>
		
			<path style="fill:url(#SVGID_00000067227338379059335440000011850593723675202977_);stroke:url(#SVGID_00000052092646607496535800000017713521584637432455_);stroke-width:3;" d="
			M54.7,48.1L122,9.3l67.3,38.8v77.7L122,164.7l-67.3-38.9L54.7,48.1z"/>
		<g>
			
				<linearGradient id="SVGID_00000035531402870708051010000002560096152790048139_" gradientUnits="userSpaceOnUse" x1="70.437" y1="86" x2="173.563" y2="86">
				<stop  offset="0" style="stop-color:#87510C"/>
				<stop  offset="0.1631" style="stop-color:#FFA11B"/>
				<stop  offset="0.3433" style="stop-color:#FFDA3B"/>
				<stop  offset="0.5129" style="stop-color:#FFF480"/>
				<stop  offset="0.6791" style="stop-color:#FFDA3B"/>
				<stop  offset="0.85" style="stop-color:#FF9916"/>
				<stop  offset="1" style="stop-color:#87510C"/>
			</linearGradient>
			<path style="fill:url(#SVGID_00000035531402870708051010000002560096152790048139_);" d="M79.2,106.8l-8.8-51.1
				c0,0,3.5,6.1,8.8,8.6c3,1.4,5.7,3.6,7.2,6.6c0.1,0.1,0.1,0.3,0.2,0.4c1.6,2.9,1.6,6.4,0.5,9.6c-0.7,2.1-0.9,4.5,0.5,6.8
				c3.9,6.4,23.7,2.1,25.8-1.8c1.1-2.1-1.3-5-3.8-7.3c-2-1.9-2.3-5-0.6-7.2c0,0,0.1-0.1,0.1-0.1c2.9-3.8,6.4-7.2,10.1-10.3
				c1-0.8,1.9-1.9,2.8-3.3c0.9,1.4,1.8,2.5,2.8,3.3c3.7,3.2,7.2,6.5,10.1,10.3c0,0,0.1,0.1,0.1,0.1c1.7,2.2,1.4,5.3-0.6,7.2
				c-2.5,2.3-4.9,5.2-3.8,7.3c2.1,3.9,21.9,8.3,25.8,1.8c1.4-2.3,1.2-4.6,0.5-6.8c-1.1-3.2-1.1-6.6,0.5-9.6c0.1-0.1,0.1-0.3,0.2-0.4
				c1.5-3,4.1-5.2,7.2-6.6c5.3-2.6,8.8-8.6,8.8-8.6l-9.1,51.1c-12.2-2.2-26.9-3.5-42.6-3.5S91.5,104.6,79.2,106.8z M164.1,111.1
				c-12.1-2.1-26.6-3.4-42.1-3.4c-15.5,0-29.8,1.2-41.9,3.4l1,5.2c11.9-2,25.9-3.2,41-3.2c15.2,0,29.3,1.2,41.3,3.2L164.1,111.1z
				 M164.6,107.4c0,0-19.1,0-42.6,0s-42.6,0-42.6,0s19.1,0,42.6,0S164.6,107.4,164.6,107.4z"/>
		</g>
	</g>
</g>
</svg>
