<?xml version="1.0" encoding="utf-8"?>
<!-- Generator: Adobe Illustrator 27.8.0, SVG Export Plug-In . SVG Version: 6.00 Build 0)  -->
<svg version="1.1" id="Layer_1" xmlns="http://www.w3.org/2000/svg" xmlns:xlink="http://www.w3.org/1999/xlink" x="0px" y="0px"
	 viewBox="0 0 746.7 224" style="enable-background:new 0 0 746.7 224;" xml:space="preserve">
<style type="text/css">
	.st0{fill:#FFFFFF;}
</style>
<path class="st0" d="M219,0H5C3.7,0,2.4,0.5,1.5,1.5C0.5,2.4,0,3.7,0,5v214c0,1.3,0.5,2.6,1.5,3.5c0.9,0.9,2.2,1.5,3.5,1.5h214
	c1.3,0,2.6-0.5,3.5-1.5c0.9-0.9,1.5-2.2,1.5-3.5V5c0-1.3-0.5-2.6-1.5-3.5C221.6,0.5,220.3,0,219,0z M149.3,144.3
	c0,1.3-0.5,2.6-1.5,3.5c-0.9,0.9-2.2,1.5-3.5,1.5H79.6c-1.3,0-2.6-0.5-3.5-1.5c-0.9-0.9-1.5-2.2-1.5-3.5V79.6c0-1.3,0.5-2.6,1.5-3.5
	c0.9-0.9,2.2-1.5,3.5-1.5h64.7c1.3,0,2.6,0.5,3.5,1.5c0.9,0.9,1.5,2.2,1.5,3.5L149.3,144.3L149.3,144.3z"/>
<path class="st0" d="M667.1,74.7h-64.7c-2.7,0-5,2.2-5,5v64.7c0,2.7,2.2,5,5,5h64.7c2.7,0,5-2.2,5-5V79.6
	C672.1,76.9,669.9,74.7,667.1,74.7z"/>
<path class="st0" d="M592.4,0h-64.7c-2.7,0-5,2.2-5,5v64.7c0,2.7,2.2,5,5,5h64.7c2.8,0,5-2.2,5-5V5C597.4,2.2,595.2,0,592.4,0z"/>
<path class="st0" d="M741.8,0h-64.7c-2.7,0-5,2.2-5,5v64.7c0,2.7,2.2,5,5,5h64.7c2.7,0,5-2.2,5-5V5C746.7,2.2,744.5,0,741.8,0z"/>
<path class="st0" d="M592.4,149.3h-64.7c-2.7,0-5,2.2-5,5V219c0,2.7,2.2,5,5,5h64.7c2.8,0,5-2.2,5-5v-64.7
	C597.4,151.6,595.2,149.3,592.4,149.3z"/>
<path class="st0" d="M741.8,149.3h-64.7c-2.7,0-5,2.2-5,5V219c0,2.7,2.2,5,5,5h64.7c2.7,0,5-2.2,5-5v-64.7
	C746.7,151.6,744.5,149.3,741.8,149.3z"/>
<path class="st0" d="M480.3,0h-64.7c-2.7,0-5,2.2-5,5v64.7c0,2.7,2.2,5,5,5h64.7c2.7,0,5-2.2,5-5V5C485.3,2.2,483.1,0,480.3,0z"/>
<path class="st0" d="M480.3,149.3h-64.7c-2.7,0-5,2.2-5,5V219c0,2.7,2.2,5,5,5h64.7c2.7,0,5-2.2,5-5v-64.7
	C485.3,151.6,483.1,149.3,480.3,149.3z"/>
<path class="st0" d="M410.7,79.6c0-1.3-0.5-2.6-1.5-3.5c-0.9-0.9-2.2-1.5-3.5-1.5H336V5c0-1.3-0.5-2.6-1.5-3.5
	c-0.9-1-2.2-1.5-3.5-1.5h-64.7c-1.3,0-2.6,0.5-3.5,1.5c-0.9,0.9-1.5,2.2-1.5,3.5v213.9c0,1.3,0.5,2.6,1.5,3.5
	c0.9,0.9,2.2,1.5,3.5,1.5H331c1.3,0,2.6-0.5,3.5-1.5c0.9-0.9,1.5-2.2,1.5-3.5v-69.6h69.7c1.3,0,2.6-0.5,3.5-1.5
	c0.9-0.9,1.5-2.2,1.5-3.5V79.6z"/>
</svg>
