<?xml version="1.0" encoding="utf-8"?>
<!-- Generator: Adobe Illustrator 27.8.0, SVG Export Plug-In . SVG Version: 6.00 Build 0)  -->
<svg version="1.1" id="Layer_1" xmlns="http://www.w3.org/2000/svg" xmlns:xlink="http://www.w3.org/1999/xlink" x="0px" y="0px"
	 viewBox="0 0 230 70" style="enable-background:new 0 0 230 70;" xml:space="preserve">
<style type="text/css">
	.st0{fill:#FFFFFF;}
</style>
<g>
	<path class="st0" d="M90.2,33.9c1.7-0.9,3.2-2.2,4.1-3.7c1.2-1.6,1.7-3.6,1.7-5.5c0-3.8-1.4-6.8-4.2-8.8c-2.8-2.1-6.6-3-11.4-3
		H63.2v44.3h17.9c5,0,9.1-1.2,12-3.4c2.9-2.4,4.5-5.5,4.5-9.7c0-2.5-0.7-4.6-2.1-6.4C94.2,36,92.3,34.8,90.2,33.9L90.2,33.9z
		 M72.5,20.7h7.1c2.2,0,3.9,0.4,5,1.3c1.1,0.8,1.6,2,1.6,3.4s-0.5,2.6-1.6,3.4c-1.1,0.9-2.8,1.3-5,1.3h-7.1V20.7z M86,47.6
		c-1.2,1.1-3.2,1.4-5.7,1.4h-7.9V38.2h7.9c2.5,0,4.3,0.5,5.7,1.4c1.2,0.9,1.8,2.2,1.8,3.8C87.9,45.2,87.2,46.6,86,47.6L86,47.6z"/>
	<path class="st0" d="M110.1,23.9h-9.3V57h9.3V23.9z"/>
	<path class="st0" d="M202.9,28.9c-1.4-1.7-3.3-3.2-5.5-4.1s-4.6-1.4-7.4-1.4c-3.3,0-6.2,0.8-8.8,2.2c-2.5,1.4-4.6,3.6-6,6
		c-1.4,2.5-2.2,5.5-2.2,8.8s0.7,6.4,2.1,9.1s3.4,4.6,6,6s5.5,2.1,8.9,2.1c4.2,0,7.6-1.1,10.5-3.2c2.8-2,4.6-4.7,5.5-8.3h-9.5
		c-0.5,1.2-1.2,2.2-2.2,2.9c-1.2,0.8-2.8,1.3-4.6,1.3c-1.6,0-3-0.4-4.1-1.2s-2-1.8-2.5-3.4c-0.4-0.9-0.5-1.8-0.7-3h23.7v-0.3
		c0.4-2.6,0.3-5.3-0.3-7.5C205.4,32.8,204.4,30.7,202.9,28.9z M182.8,36.8c0.1-0.7,0.4-1.3,0.5-2c0.5-1.4,1.4-2.6,2.5-3.4
		s2.4-1.2,3.9-1.2c2,0,3.6,0.7,4.7,1.8c1.2,1.2,1.8,2.8,2,4.7L182.8,36.8L182.8,36.8z"/>
	<path class="st0" d="M110.2,12.7h-9.7v8h9.7V12.7z"/>
	<path class="st0" d="M161.8,27.7c-1.1-1.3-2.4-2.4-3.9-3c-1.7-0.8-3.8-1.3-6-1.3c-2.8,0-5.4,0.7-7.5,2.1c-2.1,1.3-3.8,3.3-5.1,5.8
		c-1.2,2.4-1.8,5.3-1.8,8.4s0.7,5.9,2,8.3c1.3,2.5,3,4.3,5.3,5.8c2.2,1.4,4.7,2.1,7.5,2.1c2.1,0,3.9-0.4,5.7-1.3
		c1.3-0.7,2.5-1.6,3.3-2.8v3.6c0,2.2-0.5,3.9-1.7,5.1s-2.9,1.7-5.3,1.7c-2,0-3.6-0.4-4.6-1.3c-0.9-0.8-1.7-1.7-1.8-3.7h-9.1
		c0.1,2.9,0.9,4.7,2.1,6.4c1.3,1.8,3.2,3.3,5.5,4.3c2.4,1.1,5,1.6,8,1.6c5,0,9.1-1.3,12-3.8s4.3-6,4.3-10.4V23.9H162L161.8,27.7
		L161.8,27.7z M160.1,44c-0.7,1.2-1.4,2.2-2.5,2.9s-2.4,1.1-3.8,1.1c-2.1,0-3.8-0.8-5-2.2c-1.3-1.4-2-3.6-2-6c0-2.5,0.7-4.6,2-6
		s3-2.2,5-2.2c2.1,0,3.9,0.8,5.3,2.2c1.3,1.4,2,3.6,2,6C161,41.2,160.7,42.7,160.1,44L160.1,44z"/>
	<path class="st0" d="M229.3,31.9V24h-6.8V12.7h-9.3v11.2h-5.9v7.9h5.8v13c0,7.2,1.4,12.5,10.3,12.4l5.5-0.1v-7.4h-2.8
		c-3.9,0-3.7-2.2-3.7-6.6V31.9H229.3L229.3,31.9z"/>
	<path class="st0" d="M135.1,31.9V24h-6.8V12.7H119v11.2h-5.8v7.9h5.8v13c0,7.2,1.4,12.5,10.3,12.4l5.5-0.1v-7.4H132
		c-3.9,0-3.7-2.2-3.7-6.6V31.9H135.1L135.1,31.9z"/>
	<path class="st0" d="M24.1,20.7h14.1L52.7,35c0.9,0.9,0.9,2.5,0,3.4L34.1,57H19.6l4.3-4.2l16.2-16L24.1,20.7"/>
	<path class="st0" d="M29.9,36.8H15.8L1.3,22.4c-0.9-0.9-0.9-2.5,0-3.4L19.8,0.5h14.5L30,4.7l-16.2,16L29.9,36.8"/>
</g>
</svg>
