<?xml version="1.0" encoding="utf-8"?>
<!-- Generator: Adobe Illustrator 27.8.0, SVG Export Plug-In . SVG Version: 6.00 Build 0)  -->
<svg version="1.1" id="Layer_1" xmlns="http://www.w3.org/2000/svg" xmlns:xlink="http://www.w3.org/1999/xlink" x="0px" y="0px"
	 viewBox="0 0 303.7 60.8" style="enable-background:new 0 0 303.7 60.8;" xml:space="preserve">
<style type="text/css">
	.st0{fill:#F0B72F;}
</style>
<g id="b_00000181052761434604033350000002585829451916520580_">
	<g id="c_00000139987057310584872020000014666614295125122231_">
		<g id="d_00000128445634016180910130000014458380035482231206_" transform="translate(0.547)">
			<path id="e_00000106125751347645029150000014549788052049039770_" class="st0" d="M18,25.5l11.8-11.8l11.8,11.8l6.9-6.9L29.8,0
				L11.1,18.7L18,25.5L18,25.5z"/>
			
				<rect id="f_00000067231387148208931430000018177999319875379604_" x="1.5" y="25.5" transform="matrix(0.7071 -0.7071 0.7071 0.7071 -19.6178 13.3549)" class="st0" width="9.7" height="9.7"/>
			<path id="g_00000081624548141400336760000011104169757470419625_" class="st0" d="M18,35.2L29.8,47l11.8-11.8l6.9,6.9l0,0
				L29.8,60.8L11.1,42.1l0,0L18,35.2L18,35.2z"/>
			
				<rect id="h_00000119081930491026364050000004683426998609520032_" x="48.3" y="25.5" transform="matrix(0.7071 -0.7071 0.7071 0.7071 -5.8788 46.4914)" class="st0" width="9.7" height="9.7"/>
			<path id="i_00000149349261022350595280000005140139004108498598_" class="st0" d="M36.8,30.4L36.8,30.4l-7-7l-5.2,5.2l0,0
				L24,29.2l-1.2,1.2l0,0l7,7L36.8,30.4L36.8,30.4L36.8,30.4z"/>
			<path id="j_00000047028331920530736970000009490645848777313945_" class="st0" d="M71,14.7h14.9c3.1-0.2,6.1,0.8,8.4,2.9
				c1.4,1.4,2.3,3.4,2.2,5.4v0.1c0,0.8-0.1,1.7-0.3,2.5c-0.2,0.7-0.6,1.3-0.9,1.9s-0.8,1-1.3,1.5c-0.5,0.4-1,0.8-1.7,1.1
				c1.7,0.6,3.2,1.6,4.4,2.9c1.2,1.4,1.7,3.2,1.6,5v0.1c0,1.3-0.3,2.7-0.8,3.9c-0.6,1.1-1.4,2.1-2.4,2.8c-1.2,0.8-2.5,1.3-3.9,1.7
				c-1.7,0.4-3.3,0.6-5,0.6H71V14.7L71,14.7L71,14.7z M84.4,27.7c1.3,0.1,2.6-0.2,3.7-0.8c0.9-0.6,1.4-1.5,1.4-2.6v-0.1
				c0.1-1-0.4-1.9-1.2-2.5c-1-0.6-2.3-1-3.4-0.8h-7v6.8H84.4L84.4,27.7z M86.3,40.8c1.3,0.1,2.5-0.2,3.7-0.8
				c0.9-0.6,1.4-1.6,1.3-2.7v-0.1c0-1-0.4-2-1.2-2.5c-1.2-0.8-2.6-1-4-1h-8.2v7.1H86.3L86.3,40.8z"/>
			<path id="k_00000085250402151652984550000017547401439557702073_" class="st0" d="M107.2,14.7h7.1v32.2h-7.1V14.7z"/>
			<path id="l_00000102534092187937354220000008697717475571351946_" class="st0" d="M125,14.7h6.5l15.1,19.9V14.8h7V47h-6L132,26.5
				V47h-7V14.7L125,14.7z"/>
			<path id="m_00000049932741559987246600000014675123746621769098_" class="st0" d="M175.1,14.5h6.5L195.4,47H188l-3-7.2h-13.6
				l-3,7.2h-7.2L175.1,14.5L175.1,14.5z M182.6,33.5L178.3,23L174,33.5H182.6z"/>
			<path id="n_00000145021815786351546750000018159355612866066313_" class="st0" d="M203.2,14.7h6.5l15.1,19.9V14.8h7V47h-6.1
				l-15.6-20.5V47h-7L203.2,14.7L203.2,14.7z"/>
			<path id="o_00000135650307938143549650000002500212927106307470_" class="st0" d="M257.4,47.5c-2.3,0-4.5-0.4-6.6-1.3
				c-4-1.7-7.1-4.8-8.7-8.8c-0.8-2.1-1.2-4.3-1.2-6.5v-0.1c0-2.2,0.4-4.4,1.2-6.5c0.8-2,2-3.8,3.4-5.3c1.5-1.5,3.3-2.8,5.3-3.6
				c2.1-0.9,4.5-1.3,6.8-1.3c1.4,0,2.8,0.1,4.1,0.4c1.2,0.2,2.3,0.6,3.4,1c1,0.4,1.9,1,2.8,1.6c0.8,0.6,1.7,1.3,2.4,2l-4.5,5.2
				c-1.2-1-2.4-2-3.9-2.7c-1.4-0.6-2.9-1-4.4-1c-2.5,0-5,1-6.7,3c-0.8,1-1.5,2-1.9,3.2c-0.5,1.2-0.7,2.5-0.7,3.9v0.1
				c0,1.3,0.2,2.6,0.7,3.9c0.4,1.2,1.1,2.3,1.9,3.2c1.7,1.9,4.2,3,6.7,3c1.6,0.1,3.2-0.3,4.7-1c1.4-0.8,2.6-1.7,3.8-2.8l4.5,4.5
				c-0.8,0.9-1.7,1.7-2.6,2.4c-0.9,0.7-1.9,1.3-3,1.9s-2.3,0.9-3.4,1.2C260.2,47.4,258.7,47.5,257.4,47.5L257.4,47.5z"/>
			<path id="p_00000156562753280357568170000013146939608245933960_" class="st0" d="M278.9,14.7h24.3V21h-17.3v6.5h15.2v6.3h-15.2
				v6.7h17.5v6.3h-24.5V14.7L278.9,14.7z"/>
		</g>
	</g>
</g>
</svg>
