<?xml version="1.0" encoding="utf-8"?>
<!-- Generator: Adobe Illustrator 27.8.0, SVG Export Plug-In . SVG Version: 6.00 Build 0)  -->
<svg version="1.1" id="Layer_1" xmlns="http://www.w3.org/2000/svg" xmlns:xlink="http://www.w3.org/1999/xlink" x="0px" y="0px"
	 viewBox="0 0 194.1 79.6" style="enable-background:new 0 0 194.1 79.6;" xml:space="preserve">
<style type="text/css">
	.st0{fill:#FFA100;}
	.st1{fill:#FFFFFF;}
</style>
<g id="Layer_x0020_1">
	<g id="_2498434179408">
		<g id="Layer_x0020_1_0">
		</g>
	</g>
</g>
<g id="_3036754161648">
	<polygon class="st0" points="138.3,56.2 138.3,6.3 148.4,6.3 148.4,56.2 	"/>
	<path class="st1" d="M21.5,70.9H0V21.1h20.6c10,0,15.9,5.5,15.9,14c0,5.6-3.7,9.1-6.3,10.3c3.1,1.3,7.1,4.6,7.1,11.2
		C37.3,65.9,30.7,70.9,21.5,70.9L21.5,70.9z M20.1,29.8h-9.9v11.5h9.9c4.3,0,6.6-2.4,6.6-5.8S24,29.8,20.1,29.8L20.1,29.8z M20.7,50
		H10.2v12.2h10.5c4.6,0,6.6-2.8,6.6-6.2C27.3,52.8,25.2,50,20.7,50z"/>
	<polygon class="st1" points="68,50.4 68,70.9 58,70.9 58,50.4 42.5,21.1 53.2,21.1 62.8,41.1 72.4,21.1 83.3,21.1 	"/>
	<path class="st1" d="M111.8,70.9H90.3V21.1h20.6c10,0,15.9,5.5,15.9,14c0,5.6-3.7,9.1-6.3,10.3c3.1,1.3,7.1,4.6,7.1,11.2
		C127.3,65.9,120.9,70.9,111.8,70.9L111.8,70.9z M110,29.8h-9.7v11.5h9.7c4.3,0,6.6-2.4,6.6-5.8S114.3,29.8,110,29.8z M110.8,50
		h-10.5v12.2h10.5c4.6,0,6.6-2.8,6.6-6.2C117.4,52.8,115.2,50,110.8,50L110.8,50z"/>
	<polygon class="st1" points="180.8,29.8 180.8,71.1 170.8,71.1 170.8,29.8 157.2,29.8 157.2,21.1 194.1,21.1 194.1,29.8 	"/>
</g>
</svg>
