<?xml version="1.0" encoding="utf-8"?>
<!-- Generator: Adobe Illustrator 27.8.0, SVG Export Plug-In . SVG Version: 6.00 Build 0)  -->
<svg version="1.1" id="Layer_1" xmlns="http://www.w3.org/2000/svg" xmlns:xlink="http://www.w3.org/1999/xlink" x="0px" y="0px"
	 viewBox="0 0 220.4 40.1" style="enable-background:new 0 0 220.4 40.1;" xml:space="preserve">
<style type="text/css">
	.st0{fill:#3156AA;}
	.st1{fill:#1972E2;}
	.st2{fill:url(#SVGID_1_);}
	.st3{fill:#FFFFFF;}
</style>
<g>
	<path class="st0" d="M64.4,28.4L50.2,3.8C47.1-1.3,39.5-1.4,36.5,4L21.7,29.6c-2.8,4.7,0.7,10.6,6.2,10.6h29.8
		C63.3,40.2,67.5,34.1,64.4,28.4z"/>
	<path class="st1" d="M44,30.3l-0.9-1.5c-0.8-1.4-2.6-4.5-2.6-4.5l-12-20.8c-3.1-4.6-10.5-5-13.6,0.8L1,28.4
		c-2.9,5.1,0.5,11.7,6.8,11.7h29.6H50h7.5C49.9,40.2,47.5,36.2,44,30.3z"/>
	
		<linearGradient id="SVGID_1_" gradientUnits="userSpaceOnUse" x1="17.7436" y1="-877.0858" x2="52.168" y2="-889.8068" gradientTransform="matrix(1 0 0 -1 0 -856)">
		<stop  offset="0" style="stop-color:#264CA2;stop-opacity:0"/>
		<stop  offset="1" style="stop-color:#234588"/>
	</linearGradient>
	<path class="st2" d="M44,30.3l-0.9-1.5c-0.8-1.4-2.6-4.5-2.6-4.5l-7.7-13.6l-11.1,19c-2.8,4.7,0.7,10.6,6.2,10.6h9.5H50h7.6
		C49.9,40.2,47.5,36.2,44,30.3z"/>
	<path class="st3" d="M189,21.3c0.1,9.6,7.8,17.1,17.4,17c5.9,0,10.5-2,14-6.1l-2.2-1.8c-1.4-1.1-3.4-1.2-4.8-0.1
		c-1.9,1.4-4.3,2.2-7.1,2.2c-6.6,0-10.8-4.3-10.8-11.2s4-11,10.8-11c2.7,0,5.2,0.7,7.1,2.2c1.5,1.1,3.4,1,4.8-0.1l2.2-1.8
		c-3.4-4.1-8.2-6.2-14.3-6.2c-5.2,0-9.5,1.6-12.5,4.5C190.6,11.7,189,16.1,189,21.3z"/>
	<path class="st3" d="M99.5,34.4l9.1-15.8v19.3h6.9V4.6h-4.3c-1.3,0-2.6,0.7-3.3,1.9L97.1,26.3L86.3,6.5c-0.6-1.2-1.9-1.9-3.3-1.9
		h-4.3v33.2h6.9V18.6l9.1,15.8H99.5z"/>
	<path class="st3" d="M121.2,4.7v33.2l27.6-0.1v-2.1c0-1.7-1.3-3-3-3h-17.7v-8.9h17.7v-5.1h-17.7V9.8h17.7c1.7,0,3-1.3,3-3V4.7
		H121.2z"/>
	<path class="st3" d="M182,4.7h6.5l-13.1,16.7L188.6,38h-6.5c-1.2,0-2.3-0.6-3.1-1.5l-7.9-9.9l-7.8,9.8c-0.8,1-1.9,1.5-3.1,1.5h-6.6
		l13.2-16.6L153.6,4.7h6.5c1.2,0,2.3,0.5,3.1,1.5L171,16l7.8-9.9C179.7,5.2,180.7,4.7,182,4.7z"/>
</g>
</svg>
