<?xml version="1.0" encoding="utf-8"?>
<!-- Generator: Adobe Illustrator 27.8.0, SVG Export Plug-In . SVG Version: 6.00 Build 0)  -->
<svg version="1.1" id="Layer_1" xmlns="http://www.w3.org/2000/svg" xmlns:xlink="http://www.w3.org/1999/xlink" x="0px" y="0px"
	 viewBox="0 0 1281 199" style="enable-background:new 0 0 1281 199;" xml:space="preserve">
<style type="text/css">
	.st0{fill:#FFFFFF;}
	.st1{fill-rule:evenodd;clip-rule:evenodd;fill:#633001;}
	.st2{fill:#D1884F;}
	.st3{fill:#FEDC90;}
	.st4{fill:#633001;}
</style>
<path class="st0" d="M247,153.1c-3,0-5.1-0.6-6.3-1.8c-1.1-1.2-1.7-3.2-1.7-5.9V56.2c0-2.7,0.6-4.6,1.8-5.9c1.2-1.3,3.3-2,6.2-2
	h37.8c14.4,0,25,3,31.7,9.1c6.8,6.1,10.2,15.1,10.2,27.1c0,11.9-3.4,20.9-10.2,27c-6.7,6-17.3,8.9-31.7,8.9h-14.6v25
	c0,2.7-0.6,4.6-1.8,5.9c-1.2,1.2-3.3,1.8-6.3,1.8H247z M282.3,98.1c4.2,0,7.4-1.1,9.7-3.4c2.4-2.3,3.5-5.7,3.5-10.2
	c0-4.6-1.2-8.1-3.5-10.3c-2.3-2.3-5.5-3.4-9.7-3.4h-12.2v27.3H282.3z"/>
<path class="st0" d="M363.1,155.4c-9.7,0-17.4-3.1-23.3-9.2c-5.8-6.3-8.6-15.1-8.6-26.4c0-8.6,2-16.2,5.9-22.7
	c4-6.5,9.6-11.5,16.8-14.9c7.3-3.6,15.7-5.4,25.1-5.4c7.8,0,14.7,0.9,20.6,2.6c6.1,1.6,11.6,4.1,16.6,7.2v61.6c0,2-0.4,3.2-1.1,3.9
	c-0.7,0.6-2.2,0.9-4.3,0.9h-15.7c-1.1,0-2-0.2-2.6-0.5c-0.6-0.4-1.1-1-1.5-1.8l-2-4.6c-3,3.2-6.6,5.5-10.8,6.9
	C374.1,154.6,369,155.4,363.1,155.4z M374.6,134.4c4,0,7.1-1,9.4-2.9c2.3-2,3.4-4.7,3.4-8.3v-24c-2-0.9-4.4-1.4-7.4-1.4
	c-5.4,0-9.8,1.9-13.1,5.7c-3.2,3.8-4.8,9.1-4.8,16C362.1,129.5,366.3,134.4,374.6,134.4z"/>
<path class="st0" d="M437.7,153.1c-3,0-5.1-0.6-6.3-1.8c-1.2-1.2-1.8-3.2-1.8-5.9V83.9c0-1.8,0.3-3.1,0.9-3.7
	c0.7-0.7,2.2-1.1,4.3-1.1h15.9c1.2,0,2.2,0.2,2.8,0.6c0.7,0.3,1.1,0.9,1.2,1.8l0.8,4.6c2.9-2.9,6.6-5.1,11.2-6.8
	c4.7-1.7,10-2.6,15.7-2.6c8.3,0,15,2.4,20.2,7.1c5.1,4.6,7.7,11.5,7.7,20.6v40.8c0,2.7-0.6,4.6-1.8,5.9c-1.1,1.2-3.2,1.8-6.2,1.8
	h-14.9c-3,0-5.1-0.6-6.5-1.8c-1.2-1.2-1.8-3.2-1.8-5.9v-38.8c0-3.1-0.7-5.3-2-6.6c-1.3-1.3-3.4-2-6.3-2c-3.1,0-5.5,0.8-7.4,2.5
	c-1.7,1.6-2.6,3.9-2.6,6.8v38.2c0,2.7-0.6,4.6-1.8,5.9c-1.1,1.2-3.2,1.8-6.2,1.8H437.7z"/>
<path class="st0" d="M564.7,155.4c-14.4,0-25.5-3.3-33.3-10c-7.8-6.7-11.7-16.4-11.7-29.1c0-7.8,1.8-14.7,5.4-20.6
	c3.6-6,8.8-10.6,15.6-13.9c6.9-3.3,15-4.9,24.3-4.9c7.1,0,13,0.7,17.9,2c4.9,1.3,9.3,3.4,13.1,6.2c1.1,0.7,1.7,1.6,1.7,2.8
	c0,0.8-0.4,1.9-1.2,3.2l-6.3,10.9c-0.7,1.4-1.6,2.2-2.6,2.2c-0.6,0-1.6-0.4-2.9-1.2c-2.8-1.7-5.4-3-7.9-3.9
	c-2.4-0.8-5.3-1.2-8.9-1.2c-5.1,0-9.3,1.6-12.5,4.9c-3.1,3.3-4.6,7.8-4.6,13.6c0,5.9,1.6,10.4,4.8,13.6c3.2,3.1,7.6,4.6,13.1,4.6
	c3.3,0,6.3-0.5,8.9-1.4c2.7-0.9,5.4-2.2,8.2-3.9c1.4-0.8,2.5-1.2,3.1-1.2c0.9,0,1.7,0.7,2.5,2.2l6.9,11.9c0.5,1,0.8,1.8,0.8,2.5
	c0,0.9-0.6,1.8-1.8,2.6c-4.3,2.8-9,4.8-14.2,6.2C577.9,154.7,571.8,155.4,564.7,155.4z"/>
<path class="st0" d="M638,155.4c-9.7,0-17.4-3.1-23.3-9.2c-5.8-6.3-8.6-15.1-8.6-26.4c0-8.6,2-16.2,5.9-22.7
	c4-6.5,9.6-11.5,16.8-14.9c7.3-3.6,15.7-5.4,25.1-5.4c7.8,0,14.7,0.9,20.6,2.6c6.1,1.6,11.6,4.1,16.6,7.2v61.6c0,2-0.4,3.2-1.1,3.9
	c-0.7,0.6-2.2,0.9-4.3,0.9h-15.7c-1.1,0-2-0.2-2.6-0.5c-0.6-0.4-1.1-1-1.5-1.8l-2-4.6c-3,3.2-6.6,5.5-10.8,6.9
	C649,154.6,644,155.4,638,155.4z M649.6,134.4c4,0,7.1-1,9.4-2.9c2.3-2,3.4-4.7,3.4-8.3v-24c-2-0.9-4.4-1.4-7.4-1.4
	c-5.4,0-9.8,1.9-13.1,5.7c-3.2,3.8-4.8,9.1-4.8,16C637.1,129.5,641.2,134.4,649.6,134.4z"/>
<path class="st0" d="M788,147.2c0.7,0.8,1.1,1.7,1.1,2.8c0,0.9-0.3,1.7-0.9,2.3c-0.6,0.5-1.4,0.8-2.5,0.8h-23.9
	c-1.4,0-2.5-0.1-3.2-0.3c-0.6-0.3-1.3-0.9-2-1.7l-21-28.5v22.8c0,2.7-0.6,4.6-1.8,5.9c-1.2,1.2-3.3,1.8-6.3,1.8h-14.9
	c-3,0-5.1-0.6-6.3-1.8c-1.1-1.2-1.7-3.2-1.7-5.9V56.2c0-2.7,0.6-4.6,1.8-5.9c1.2-1.3,3.3-2,6.2-2h14.9c3,0,5.1,0.7,6.3,2
	c1.2,1.2,1.8,3.2,1.8,5.9v51.6l20.3-26.5c0.6-0.8,1.3-1.4,2-1.7c0.7-0.3,1.8-0.5,3.2-0.5H785c1,0,1.8,0.3,2.3,0.9
	c0.6,0.5,0.9,1.2,0.9,2.2c0,1-0.4,2-1.1,2.8l-26.3,30.2L788,147.2z"/>
<path class="st0" d="M838,155.4c-8.6,0-16.3-1.4-23.1-4.3c-6.7-2.9-12-7.2-15.9-12.9c-3.9-5.8-5.9-12.8-5.9-21.1
	c0-13,3.7-23,11.1-29.9c7.4-6.9,18-10.3,31.9-10.3c13.6,0,23.8,3.4,30.8,10.2c7.1,6.7,10.6,16,10.6,27.9c0,5.1-2.3,7.7-6.8,7.7
	h-48.4c0,4.4,1.6,7.8,4.9,10.2c3.4,2.4,8.5,3.5,15.3,3.5c4.2,0,7.7-0.4,10.5-1.1c2.9-0.8,5.8-2,8.6-3.5c1.2-0.5,2.1-0.8,2.5-0.8
	c0.9,0,1.7,0.6,2.3,1.8l5.2,9.9c0.5,1,0.8,1.8,0.8,2.3c0,0.9-0.6,1.8-1.8,2.6c-4.2,2.8-9,4.8-14.3,6S844.9,155.4,838,155.4z
	 M849.9,107.3c0-3.9-1.1-6.9-3.4-9.1c-2.3-2.2-5.7-3.2-10.2-3.2c-4.5,0-8,1.1-10.3,3.4c-2.4,2.2-3.5,5.1-3.5,8.9H849.9z"/>
<path class="st0" d="M930.4,155.4c-8.6,0-16.8-0.9-24.5-2.6c-7.7-1.8-13.9-4.4-18.6-7.7c-1.7-1.1-2.6-2.3-2.6-3.5
	c0-0.8,0.3-1.7,0.9-2.6l7.6-12c0.8-1.2,1.6-1.8,2.5-1.8c0.5,0,1.4,0.4,2.6,1.1c3.8,2.2,8.1,3.9,12.9,5.2c4.8,1.3,9.6,2,14.3,2
	c4.8,0,8.4-0.7,10.6-2.2c2.4-1.4,3.5-3.7,3.5-6.9c0-3.1-1.3-5.5-3.9-7.2c-2.5-1.7-7.1-4-14-6.6c-10.4-3.9-18.5-8.3-24.3-13.1
	c-5.8-4.9-8.6-11.6-8.6-20c0-10.2,3.6-17.9,10.9-23.3c7.3-5.3,17-8,29.1-8c8.4,0,15.6,0.8,21.6,2.3c6.1,1.4,11.2,3.7,15.4,6.8
	c1.7,1.3,2.6,2.6,2.6,3.7c0,0.7-0.3,1.5-0.9,2.5l-7.5,12c-0.9,1.2-1.7,1.8-2.5,1.8c-0.5,0-1.4-0.4-2.6-1.1c-6-3.9-13-5.9-21.3-5.9
	c-4.4,0-7.8,0.7-10.2,2.2c-2.4,1.4-3.5,3.8-3.5,7.1c0,2.3,0.6,4.1,1.8,5.5c1.2,1.4,2.9,2.7,4.9,3.9c2.2,1,5.4,2.4,9.9,4l2.9,1.1
	c7.6,3,13.6,5.9,17.9,8.6c4.4,2.7,7.8,6,10,10c2.3,3.9,3.4,8.8,3.4,14.8c0,9.1-3.4,16.4-10.3,21.9
	C953.7,152.7,943.7,155.4,930.4,155.4z"/>
<path class="st0" d="M1003.5,153.1c-1.5,0-2.7-0.3-3.5-0.8c-0.8-0.5-1.4-1.5-1.9-3.1l-19.9-66.6c-0.2-0.6-0.3-1.1-0.3-1.4
	c0-1.4,1-2.2,3.1-2.2h20.3c1.3,0,2.3,0.3,2.9,0.8c0.6,0.4,1,1.1,1.2,2.2l8.3,35l10.5-28.2c0.5-1.2,1-2.1,1.5-2.5
	c0.6-0.5,1.7-0.8,3.1-0.8h9.7c1.4,0,2.4,0.3,2.9,0.8c0.6,0.4,1.2,1.2,1.7,2.5l10.3,28.2l8.5-35c0.3-1,0.7-1.7,1.2-2.2
	c0.5-0.5,1.4-0.8,2.8-0.8h20.5c2.1,0,3.1,0.7,3.1,2.2c0,0.3-0.1,0.8-0.3,1.4l-20,66.6c-0.4,1.5-1,2.6-1.8,3.1
	c-0.7,0.5-1.8,0.8-3.4,0.8H1049c-1.4,0-2.5-0.3-3.2-0.8c-0.7-0.6-1.3-1.6-1.8-3.1l-10.2-27.9l-10.2,27.9c-0.4,1.4-1,2.5-1.8,3.1
	c-0.7,0.5-1.8,0.8-3.2,0.8H1003.5z"/>
<path class="st0" d="M1128.7,155.4c-9.7,0-17.4-3.1-23.3-9.2c-5.8-6.3-8.6-15.1-8.6-26.4c0-8.6,2-16.2,5.9-22.7
	c4-6.5,9.6-11.5,16.8-14.9c7.3-3.6,15.7-5.4,25.1-5.4c7.8,0,14.7,0.9,20.7,2.6c6.1,1.6,11.6,4.1,16.6,7.2v61.6c0,2-0.4,3.2-1.1,3.9
	c-0.7,0.6-2.2,0.9-4.3,0.9h-15.7c-1.1,0-2-0.2-2.6-0.5c-0.6-0.4-1.1-1-1.5-1.8l-2-4.6c-3,3.2-6.6,5.5-10.8,6.9
	C1139.7,154.6,1134.7,155.4,1128.7,155.4z M1140.3,134.4c4,0,7.1-1,9.4-2.9c2.3-2,3.4-4.7,3.4-8.3v-24c-2-0.9-4.4-1.4-7.4-1.4
	c-5.5,0-9.8,1.9-13.1,5.7c-3.2,3.8-4.8,9.1-4.8,16C1127.8,129.5,1132,134.4,1140.3,134.4z"/>
<path class="st0" d="M1203.2,184.2c-3,0-5.1-0.6-6.3-1.8c-1.1-1.2-1.7-3.2-1.7-5.9V88.2c4.6-3.3,10.4-6,17.4-8.2
	c7-2.2,14.3-3.2,21.9-3.2c31,0,46.5,13.1,46.5,39.4c0,11.9-3.3,21.4-9.9,28.5c-6.6,7.1-15.9,10.6-27.9,10.6c-3.4,0-6.7-0.4-9.9-1.2
	c-3.1-0.8-5.7-2-7.7-3.4v25.7c0,2.7-0.6,4.6-1.9,5.9c-1.2,1.2-3.3,1.8-6.3,1.8H1203.2z M1236.6,134.6c4.4,0,7.7-1.6,9.9-4.9
	c2.3-3.4,3.4-7.9,3.4-13.6c0-6.7-1.3-11.4-4-14c-2.6-2.8-6.6-4.2-12-4.2c-3.5,0-6.3,0.5-8.3,1.4v24.5c0,3.5,1,6.2,2.9,8
	C1230.4,133.7,1233.1,134.6,1236.6,134.6z"/>
<path class="st1" d="M97.6,198.6c-29.2,0-52.7-7-69.1-19.6C11.8,166.3,3,148.2,3,127.7c0-19.7,8.8-33.9,18.8-43.5
	c7.8-7.5,16.4-12.3,22.4-15.1c-1.4-4.2-3-9.6-4.6-15.2c-2-7.5-4-16.4-4-22.8c0-7.7,1.7-15.4,6.2-21.3C46.5,3.4,53.7,0,62.3,0
	C69,0,74.7,2.5,79.2,6.8c4.3,4.1,7.1,9.6,9.1,15.3c3.5,10,4.8,22.6,5.2,35.2h8.3c0.4-12.6,1.7-25.2,5.2-35.2
	c2-5.7,4.8-11.2,9.1-15.3C120.5,2.5,126.2,0,133,0c8.6,0,15.8,3.4,20.5,9.7c4.5,6,6.2,13.7,6.2,21.3c0,6.5-2,15.3-4,22.8
	c-1.5,5.6-3.2,11.1-4.6,15.2c6,2.8,14.6,7.6,22.4,15.1c10,9.6,18.8,23.8,18.8,43.5c0,20.4-8.8,38.5-25.4,51.2
	c-16.4,12.6-39.9,19.6-69.1,19.6H97.6z"/>
<path class="st2" d="M62.3,7.3c-12.6,0-18.4,9.5-18.4,22.7c0,10.5,6.8,31.4,9.5,39.6c0.6,1.8-0.4,3.8-2.1,4.6
	c-10.1,4-40,18.8-40,52.6c0,35.6,30.3,62.4,86.3,62.5c0,0,0,0,0.1,0c0,0,0,0,0.1,0c56,0,86.3-26.9,86.3-62.5
	c0-33.8-29.9-48.6-40-52.6c-1.8-0.7-2.8-2.7-2.1-4.6c2.8-8.2,9.5-29.1,9.5-39.6c0-13.2-5.8-22.7-18.4-22.7c-18.2,0-22.7,26-23,53.9
	c0,1.9-1.5,3.4-3.4,3.4H88.7c-1.8,0-3.3-1.5-3.4-3.4C85,33.3,80.5,7.3,62.3,7.3z"/>
<path class="st3" d="M97.7,177.8c-41.1,0-86.4-22.2-86.4-51c0,0,0,0.1,0,0.1c0,35.6,30.4,62.5,86.4,62.5c56,0,86.4-26.9,86.4-62.5
	c0,0,0-0.1,0-0.1C184.1,155.5,138.8,177.8,97.7,177.8z"/>
<path class="st4" d="M74.8,117.9c0,9.7-4.5,14.8-10.2,14.8c-5.6,0-10.2-5.1-10.2-14.8s4.5-14.8,10.2-14.8
	C70.3,103.1,74.8,108.2,74.8,117.9z"/>
<path class="st4" d="M140.9,117.9c0,9.7-4.5,14.8-10.2,14.8c-5.6,0-10.2-5.1-10.2-14.8s4.5-14.8,10.2-14.8
	C136.3,103.1,140.9,108.2,140.9,117.9z"/>
</svg>
