<?xml version="1.0" encoding="utf-8"?>
<!-- Generator: Adobe Illustrator 27.8.0, SVG Export Plug-In . SVG Version: 6.00 Build 0)  -->
<svg version="1.1" id="Layer_1" xmlns="http://www.w3.org/2000/svg" xmlns:xlink="http://www.w3.org/1999/xlink" x="0px" y="0px"
	 viewBox="0 0 242 56" style="enable-background:new 0 0 242 56;" xml:space="preserve">
<style type="text/css">
	.st0{fill:#28CD96;}
</style>
<path class="st0" d="M190.2,27.8c0-1.4,0-2.7-0.1-4c0-1.1-0.2-2.4-0.3-3.5c-0.2-1.1-0.5-2.1-1-3.1s-1.1-1.9-1.9-2.6
	c-1.1-1.1-2.5-2-4-2.7c-1.6-0.6-3.2-1-5-1s-3.4,0.3-5,1c-1.5,0.6-2.8,1.6-4,2.7c-0.8,0.8-1.4,1.7-1.9,2.6c-0.4,1-0.8,2-1,3.1
	c-0.2,1.1-0.3,2.3-0.3,3.5c0,1.2-0.1,2.5,0,4v4c0,1.1,0.2,2.4,0.3,3.5c0.2,1.1,0.5,2.1,1,3.1c0.5,1,1.1,1.9,1.9,2.6
	c1.1,1.1,2.5,2,4,2.7c1.6,0.6,3.3,1,5,1c1.8,0,3.4-0.3,5-1c1.5-0.6,2.8-1.6,4-2.7c0.8-0.8,1.4-1.7,1.9-2.6c0.4-1,0.8-2,1-3.1
	c0.2-1.1,0.3-2.3,0.3-3.5C190.2,30.6,190.2,29.2,190.2,27.8z M183.9,27.8c0,1.6,0,2.9-0.1,3.9c0,0.9-0.1,1.8-0.3,2.5
	c-0.1,0.5-0.3,1.1-0.5,1.7c-0.2,0.4-0.4,0.8-0.8,1.1c-0.4,0.5-1,1-1.8,1.3c-0.8,0.3-1.6,0.5-2.4,0.4c-0.8,0-1.7-0.2-2.4-0.4
	c-0.7-0.2-1.3-0.7-1.8-1.3c-0.3-0.3-0.6-0.7-0.8-1.1c-0.3-0.5-0.4-1.1-0.5-1.7c-0.2-0.9-0.3-1.7-0.3-2.5c-0.1-1.1-0.1-2.4-0.1-3.9
	s0-2.9,0.1-3.9c0-0.9,0.1-1.8,0.3-2.5c0.1-0.5,0.3-1.1,0.5-1.7c0.2-0.4,0.4-0.8,0.8-1.1c0.5-0.5,1.1-1,1.8-1.3
	c0.8-0.3,1.6-0.5,2.4-0.4c0.8,0,1.7,0.2,2.4,0.4c0.7,0.3,1.2,0.7,1.8,1.3c0.3,0.3,0.5,0.7,0.8,1.1c0.3,0.5,0.4,1,0.5,1.7
	c0.2,0.9,0.3,1.7,0.3,2.5C183.7,24.9,183.9,26.3,183.9,27.8z"/>
<path class="st0" d="M241.7,11.9c0-0.3-0.3-0.5-0.5-0.5h-5.3c-0.3,0-0.5,0.3-0.5,0.5v19.6l-13-20.1c-0.1-0.2-0.2-0.2-0.3-0.2h-4.9
	c-0.3,0-0.5,0.3-0.5,0.5v31.9c0,0.3,0.3,0.5,0.5,0.5h5.3c0.3,0,0.5-0.3,0.5-0.5V24.1l13,20.1c0.1,0.2,0.2,0.2,0.3,0.2h4.9
	c0.3,0,0.5-0.3,0.5-0.5V11.9z"/>
<path class="st0" d="M206.1,11.9c0-0.3-0.3-0.5-0.5-0.5h-5.3c-0.3,0-0.5,0.3-0.5,0.5v31.9c0,0.3,0.3,0.5,0.5,0.5h5.3
	c0.3,0,0.5-0.3,0.5-0.5V11.9z"/>
<path class="st0" d="M142.4,27.8c0-1.6,0-2.9,0.1-3.9c0-0.9,0.1-1.8,0.3-2.5c0.5-2.8,2.6-4.6,5.4-4.6c1.8,0,3.4,0.7,4.5,2.2
	c0.4,0.7,0.8,1.5,1,2.4c0,0.1,0.1,0.2,0.2,0.2h6.2c0.1,0,0.1-0.1,0.1-0.2c-0.7-3.9-2.7-7.4-6.4-9c-1.8-0.8-3.8-1.2-5.7-1.2
	c-3.5,0-6.5,1.2-8.9,3.6c-1.4,1.3-2.3,3.1-2.7,5c-0.3,1.8-0.5,4.6-0.5,8.2c0,3.6,0.2,6.3,0.5,8.2s1.3,3.6,2.7,5
	c2.4,2.4,5.3,3.6,8.9,3.6c2,0,4-0.3,5.7-1.2c3.7-1.8,5.7-5.2,6.4-9c0-0.1,0-0.2-0.1-0.2h-6.2c-0.1,0-0.2,0.1-0.2,0.2
	c-0.2,0.8-0.5,1.6-1,2.4c-1,1.6-2.7,2.2-4.5,2.2c-2.8,0-4.9-1.7-5.4-4.5c-0.2-0.9-0.3-1.7-0.3-2.5C142.4,30.8,142.4,29.4,142.4,27.8
	z"/>
<path class="st0" d="M76.2,11.9c0-0.3-0.3-0.5-0.5-0.5h-5.3c-0.3,0-0.5,0.3-0.5,0.5v31.9c0,0.3,0.3,0.5,0.5,0.5h5.3
	c0.3,0,0.5-0.3,0.5-0.5v-9.4l4.3-5.1l8.8,14.8c0.1,0.1,0.2,0.2,0.3,0.2h6.5c0.3,0,0.3-0.2,0.2-0.4L84.8,24.4l10.5-12.6
	c0.2-0.3,0.1-0.5-0.2-0.5H88c-0.1,0-0.2,0-0.3,0.1L76.1,25.3L76.2,11.9z"/>
<path class="st0" d="M115.1,39c-3,0-5.7-2.8-5.7-6.1V12.1c0-0.3-0.3-0.5-0.5-0.5h-5.3c-0.3,0-0.5,0.3-0.5,0.5V33
	c0,7.3,5.4,11.9,12.2,11.9c6.8,0,12.2-4.7,12.2-11.9V12.1c0-0.3-0.3-0.5-0.5-0.5h-5.3c-0.3,0-0.5,0.3-0.5,0.5V33
	C120.7,36.2,117.9,39,115.1,39z"/>
<path class="st0" d="M16.4,27.8l16.5,16.5l10.4-10.4c1.8-1.7,4.7-1.6,6.5,0.2c1.8,1.8,1.8,4.7,0.2,6.5L36.2,54.4
	c-1.8,1.8-4.8,1.8-6.7,0L9.7,34.7v11.8c0,2.6-2.1,4.7-4.7,4.7c-2.6,0-4.7-2.1-4.7-4.7V9.3c0-2.6,2.1-4.7,4.7-4.7
	c2.6,0,4.7,2.1,4.7,4.7v11.8L29.5,1.3c1.8-1.8,4.8-1.8,6.7,0L50,15.1c1.7,1.8,1.6,4.7-0.2,6.5c-1.8,1.8-4.7,1.8-6.5,0.2L32.8,11.3
	L16.4,27.8z M32.9,23.2c-1.9,0-3.6,1.1-4.4,2.9c-0.7,1.8-0.3,3.8,1,5.2c1.3,1.3,3.4,1.8,5.2,1.1c1.8-0.7,2.9-2.5,2.9-4.4
	c0-1.2-0.5-2.5-1.4-3.3C35.4,23.7,34.2,23.2,32.9,23.2z"/>
</svg>
