<svg width="34" height="34" viewBox="0 0 34 34" fill="none" xmlns="http://www.w3.org/2000/svg">
<rect x="1" y="1" width="32" height="32" rx="16" stroke="white" stroke-width="2"/>
<path fill-rule="evenodd" clip-rule="evenodd" d="M13.4687 20.3337C13.402 20.3337 13.3354 20.3337 13.2687 20.4003L9.40201 23.9337C9.20201 24.067 9.26868 24.4004 9.46868 24.467C10.3354 24.8004 11.3354 25.0004 12.3354 25.0004H21.6688C26.0688 25.0004 29.6688 21.4003 29.6688 17.0003C29.6688 14.867 28.8688 13.0003 27.5355 11.5336C27.4022 11.4003 27.2022 11.4003 27.0688 11.5336L23.7355 14.5336C23.6021 14.667 23.6021 14.867 23.6688 15.0003C24.0688 15.5336 24.3355 16.2003 24.3355 17.0003C24.3355 18.867 22.8688 20.3337 21.0021 20.3337H13.4687Z" fill="white"/>
<path fill-rule="evenodd" clip-rule="evenodd" d="M10.2693 19.4668C10.4027 19.3334 10.4693 19.1334 10.336 19.0001C9.93598 18.4667 9.66931 17.7334 9.66931 17.0001C9.66931 15.1334 11.136 13.6667 13.0027 13.6667H20.6027C20.6694 13.6667 20.7361 13.6667 20.8027 13.6L24.6694 10.1333C24.8694 10 24.8028 9.66667 24.6028 9.6C23.6694 9.2 22.7361 9 21.6694 9H12.336C7.93597 9 4.33594 12.6 4.33594 17.0001C4.33594 19.1334 5.13594 21.0668 6.46929 22.4668C6.60262 22.6001 6.80262 22.6001 6.93596 22.4668L10.2693 19.4668Z" fill="white"/>
</svg>