<?xml version="1.0" encoding="UTF-8"?><svg xmlns="http://www.w3.org/2000/svg" viewBox="0 0 127.07 20"><defs><style>.e{fill:#5741d9;}</style></defs><g id="a"/><g id="b"><g id="c"><g><path id="d" class="e" d="M11.87,.03c2.2-.15,4.45,.3,6.42,1.29,2.92,1.44,5.25,4.03,6.34,7.08,.49,1.36,.74,2.78,.74,4.22v5.32c0,.21,0,.44-.04,.66-.13,.53-.51,1.02-1.02,1.25-.36,.17-.76,.19-1.12,.13-.81-.15-1.44-.91-1.44-1.74v-4.96c.02-.47,.02-.97-.23-1.38-.4-.76-1.42-1.12-2.2-.81-.68,.23-1.17,.93-1.19,1.65v5.02c0,.32,.02,.64-.08,.93-.17,.59-.66,1.06-1.25,1.23-.78,.21-1.67-.13-2.06-.85-.28-.42-.25-.95-.23-1.44v-5c-.02-.85-.72-1.61-1.55-1.72-.55-.08-1.12,.11-1.53,.49-.36,.34-.55,.83-.55,1.31v4.85c0,.4,.04,.83-.11,1.21-.23,.7-.93,1.21-1.67,1.19-.76,.04-1.5-.49-1.74-1.19-.13-.36-.11-.72-.11-1.1v-5.02c0-.83-.66-1.59-1.46-1.74-.74-.15-1.55,.21-1.93,.89-.15,.28-.23,.59-.23,.91v5.45c0,.53-.23,1.06-.64,1.4-.61,.53-1.61,.57-2.25,.08-.47-.32-.74-.87-.74-1.44v-5.51c0-2.08,.53-4.15,1.53-6,.81-1.5,1.93-2.84,3.26-3.9C6.76,1.15,9.28,.18,11.87,.03h0Z"/><path class="e" d="M61.39,6.41h-2.75c.11-1.93,.51-3.67,2.27-4.77,1.76-1.08,3.69-1.33,5.7-1.17,1.08,.08,2.16,.32,3.16,.78,1.76,.81,2.63,2.18,2.63,4.11V15.6c0,1.25,.25,1.48,1.5,1.36,.13-.02,.28-.04,.4-.06,.02,.06,.02,.13,.02,.17v2.08c-1,.34-2.01,.44-3.01,.17-.74-.21-1.21-.74-1.46-1.44-.13-.36-.21-.74-.32-1.14-.11,.13-.19,.23-.3,.34-2.18,2.2-4.77,3.14-7.82,2.35-2.16-.55-3.64-2.52-3.71-4.77-.02-.72,.04-1.44,.21-2.14,.4-1.61,1.55-2.59,2.99-3.24,1.02-.47,2.12-.59,3.22-.74,1.29-.17,2.56-.32,3.86-.51,.87-.13,1.31-.59,1.44-1.46,.28-1.76-.51-2.92-2.2-3.35-1.02-.25-2.06-.3-3.09-.11-1.53,.28-2.37,1.14-2.67,2.65,.02,.21-.02,.42-.06,.66h0Zm8.12,3.39c-1.27,.68-2.5,.85-3.75,1.04-1.04,.17-2.1,.32-3.11,.64-1.33,.44-1.95,1.55-1.82,3.03,.11,1.23,.93,2.22,2.27,2.44,2.06,.34,3.88-.23,5.32-1.76,.42-.44,.76-1.08,.85-1.67,.19-1.19,.17-2.39,.25-3.71Zm39.26,3.56c-.06,.3-.11,.55-.17,.78-1.19,3.62-3.6,5.17-6.53,5.51-5.06,.55-7.97-2.75-8.71-6.27-.59-2.8-.51-5.57,.72-8.2,1.17-2.48,3.03-4.11,5.81-4.6,3.33-.59,8.03,1.06,8.81,6.25,.21,1.33,.25,2.71,.38,4.11h-12.88c.11,1.91,.4,3.69,1.8,5.06,.57,.57,1.31,.85,2.12,1,2.61,.47,4.77-.78,5.62-3.31,.08-.28,.21-.36,.49-.34h2.54Zm-12.46-4.87h9.64c-.11-1.12-.3-2.16-.83-3.14-.51-.93-1.25-1.61-2.27-1.95-3.33-1.14-6.76,1.5-6.55,5.09Zm19.39,10.55h-2.92V.85h2.78V3.4c.21-.23,.34-.38,.47-.53,1.99-2.27,4.49-2.86,7.33-2.16,1.97,.49,3.07,1.89,3.45,3.84,.15,.81,.25,1.63,.25,2.44,.02,3.9,.02,7.8,.02,11.7,0,.11-.02,.21-.02,.34h-2.99v-.49c0-3.64,.02-7.29-.02-10.93,0-.81-.13-1.63-.36-2.42-.38-1.27-1.4-1.95-2.73-2.01-2.44-.08-4.36,1.21-4.96,3.37-.21,.78-.28,1.61-.28,2.44-.02,3.2-.02,6.38-.02,9.54v.53h0ZM77.15,.85h2.82v7.71c.17-.17,.28-.25,.38-.36,2.31-2.35,4.62-4.73,6.93-7.08,.19-.21,.38-.3,.68-.3,1.08,.02,2.18,0,3.37,0-.17,.17-.25,.28-.36,.38-2.03,2.03-4.05,4.09-6.1,6.1-.23,.23-.23,.38-.08,.64,2.22,3.54,4.43,7.08,6.63,10.62,.08,.13,.15,.25,.25,.44-.15,.02-.25,.02-.38,.02h-3.03c-.28,0-.4-.11-.55-.32-1.7-2.84-3.39-5.68-5.09-8.54-.08-.13-.15-.25-.25-.4-.78,.78-1.55,1.53-2.31,2.31-.11,.11-.13,.3-.13,.44v6.48h-1.63c-.38,0-.91,.11-1.12-.11-.19-.17-.08-.72-.08-1.1V1.34c.06-.11,.06-.28,.06-.49Zm-32.53-.02c-2.29,2.27-4.51,4.49-6.76,6.72,2.42,3.86,4.77,7.63,7.16,11.48-.19,0-.32,.02-.44,.02h-2.95c-.28,0-.44-.11-.59-.34-1.7-2.84-3.39-5.68-5.09-8.54-.06-.13-.15-.23-.25-.4-.42,.44-.81,.93-1.27,1.27-.95,.72-1.23,1.61-1.17,2.8,.11,1.55,.02,3.11,.02,4.66v.51h-2.8V.85h2.8v7.59c.06,.04,.13,.08,.17,.13,.08-.13,.13-.28,.21-.38,2.29-2.35,4.6-4.68,6.89-7.06,.21-.21,.4-.32,.72-.3,.95,.02,1.91,0,2.86,0h.49Zm5.59,3.03c1.42-2.08,2.92-3.81,5.72-3.31V3.67c-.74,.04-1.48,.02-2.18,.17-1.72,.36-3.05,1.93-3.33,3.84-.04,.38-.08,.76-.08,1.14v10.23h-2.88V.9h2.75V3.86h0Z"/></g></g></g></svg>