<?xml version="1.0" encoding="utf-8"?>
<!-- Generator: Adobe Illustrator 27.8.0, SVG Export Plug-In . SVG Version: 6.00 Build 0)  -->
<svg version="1.1" id="Layer_1" xmlns="http://www.w3.org/2000/svg" xmlns:xlink="http://www.w3.org/1999/xlink" x="0px" y="0px"
	 viewBox="0 0 112 112" style="enable-background:new 0 0 112 112;" xml:space="preserve">
<style type="text/css">
	.st0{fill:none;stroke:#4CEE98;stroke-width:2;stroke-miterlimit:10;}
	.st1{fill:#4CEE98;stroke:#4CEE98;stroke-width:1.4595;stroke-miterlimit:10;}
</style>
<g>
	<path class="st0" d="M27,65.2c4.9,0,8.9-4,8.9-8.9s-4-8.9-8.9-8.9s-8.9,4-8.9,8.9S22.1,65.2,27,65.2z"/>
	<path class="st0" d="M57.2,91c3.3,0,6-2.7,6-6s-2.7-6-6-6c-3.3,0-6,2.7-6,6C51.1,88.3,53.8,91,57.2,91z"/>
	<path class="st1" d="M87.2,70.5c3.3,0,6-2.7,6-6c0-3.3-2.7-6-6-6c-3.3,0-6,2.7-6,6C81.2,67.8,83.9,70.5,87.2,70.5z"/>
	<path class="st0" d="M51.1,32.1c3.3,0,6-2.7,6-6s-2.7-6-6-6s-6,2.7-6,6S47.8,32.1,51.1,32.1z"/>
	<path class="st0" d="M57.2,62.3c3.3,0,6-2.7,6-6s-2.7-6-6-6c-3.3,0-6,2.7-6,6C51.1,59.6,53.8,62.3,57.2,62.3z"/>
	<path class="st0" d="M27,47.3V34.9C27,30,31.6,26,37.2,26h7.9"/>
	<path class="st0" d="M87.2,70.5v5.6c0,4.9-4,8.9-8.9,8.9H63.1"/>
	<path class="st0" d="M27,65.2v10.9c0,4.9,4,8.9,8.9,8.9h15.2"/>
	<path class="st0" d="M51.1,56.2H35.9"/>
	<path class="st0" d="M61.4,51.9L72,41.3"/>
	<path class="st1" d="M78.3,43.9c4.9,0,8.9-4,8.9-8.9s-4-8.9-8.9-8.9s-8.9,4-8.9,8.9S73.4,43.9,78.3,43.9z"/>
	<path class="st0" d="M21,2h70c10.5,0,19,8.5,19,19v70c0,10.5-8.5,19-19,19H21c-10.5,0-19-8.5-19-19V21C2,10.5,10.5,2,21,2z"/>
</g>
</svg>
