<?xml version="1.0" encoding="utf-8"?>
<!-- Generator: Adobe Illustrator 27.8.0, SVG Export Plug-In . SVG Version: 6.00 Build 0)  -->
<svg version="1.1" id="Layer_1" xmlns="http://www.w3.org/2000/svg" xmlns:xlink="http://www.w3.org/1999/xlink" x="0px" y="0px"
	 viewBox="0 0 112 112" style="enable-background:new 0 0 112 112;" xml:space="preserve">
<style type="text/css">
	.st0{fill:none;stroke:#0ACDFF;stroke-width:2;stroke-miterlimit:10;}
	.st1{fill:none;stroke:#0ACDFF;stroke-width:2;}
</style>
<g>
	<path class="st0" d="M83.6,42c0-6.9-5.6-12.4-12.4-12.4c-6.9,0-12.4,5.6-12.4,12.4c0,6.9,5.6,12.4,12.4,12.4
		C78,54.5,83.6,49,83.6,42z"/>
	<path class="st0" d="M55.8,78.4c4.5,2.7,9.9,4.2,15.5,4.2c10,0,18.8-4.8,24.3-12.2c-1.2-6.1-6.5-10.6-12.9-10.6H59.8
		c-1.3,0-2.5,0.2-3.7,0.5"/>
	<path class="st0" d="M52.6,42c0-6.9-5.6-12.4-12.4-12.4c-6.9,0-12.4,5.6-12.4,12.4c0,6.9,5.6,12.4,12.4,12.4
		C47,54.5,52.6,49,52.6,42z"/>
	<path class="st0" d="M64.5,70.4c-1.2-6.1-6.5-10.6-12.9-10.6H28.7c-6.4,0-11.7,4.5-12.9,10.6c5.6,7.4,14.4,12.2,24.5,12.2
		C50.1,82.6,59,77.9,64.5,70.4z"/>
	<path class="st1" d="M20.6,1.5h70.7c10.6,0,19.1,8.6,19.1,19.1v70.7c0,10.6-8.6,19.1-19.1,19.1H20.6c-10.6,0-19.1-8.6-19.1-19.1
		V20.6C1.5,10.1,10.1,1.5,20.6,1.5z"/>
</g>
</svg>
