<?xml version="1.0" encoding="utf-8"?>
<!-- Generator: Adobe Illustrator 27.8.0, SVG Export Plug-In . SVG Version: 6.00 Build 0)  -->
<svg version="1.1" id="Layer_1" xmlns="http://www.w3.org/2000/svg" xmlns:xlink="http://www.w3.org/1999/xlink" x="0px" y="0px"
	 viewBox="0 0 112 112" style="enable-background:new 0 0 112 112;" xml:space="preserve">
<style type="text/css">
	.st0{fill:none;stroke:#FFDA3B;stroke-width:2;stroke-linejoin:round;}
	.st1{fill:none;stroke:#FFDA3B;stroke-width:2;}
	.st2{fill:#FFC82E;stroke:#FFDA3B;stroke-width:2;}
</style>
<g>
	<path class="st0" d="M24.7,46.8v-0.4l-0.4-0.2l-4.1-2l2.1-7.3l4.5,0.5h0.4l0.2-0.4c0.7-1.1,1.5-2.1,2.4-3l0.3-0.3L30,33.3L28.6,29
		l6.6-3.6l2.9,3.5l0.3,0.4l0.4-0.1c1.2-0.3,2.5-0.4,3.8-0.5H43l0.2-0.4l2-4.1l7.3,2.1L52,30.8v0.4l0.4,0.2c1.1,0.7,2.1,1.5,3,2.4
		l0.3,0.3l0.4-0.1l4.3-1.5l3.7,6.6L60.6,42l-0.4,0.3l0.1,0.4c0.3,1.2,0.4,2.5,0.5,3.8v0.4l0.4,0.2l4.1,2l-2.1,7.3l-4.5-0.5h-0.4
		l-0.2,0.4c-0.7,1.1-1.5,2.1-2.4,3l-0.3,0.3l0.1,0.4l1.5,4.3l0.7,0.3L57,64.4l-6.6,3.7l-2.9-3.5l-0.3-0.4l-0.4,0.1
		c-1.2,0.3-2.5,0.4-3.8,0.5h-0.4l-0.2,0.4l-2,4.1L33,67.2l0.5-4.5v-0.4L33.1,62c-1.1-0.7-2.1-1.5-3-2.4l-0.3-0.3l-0.4,0.1l-4.3,1.5
		l-3.7-6.6l3.5-2.9l0.4-0.3l-0.1-0.4C24.9,49.4,24.8,48.1,24.7,46.8z M39.5,57.4c5.9,1.7,12.1-1.7,13.8-7.7
		c1.7-5.9-1.7-12.1-7.7-13.8c-5.9-1.7-12.1,1.7-13.8,7.7C30.1,49.5,33.5,55.7,39.5,57.4z"/>
	<path class="st1" d="M65.7,80.7l-0.2-0.4h-0.4L61.8,80l-0.5-5.4l3.1-0.9l0.4-0.1l0.1-0.4c0.2-0.9,0.5-1.8,0.8-2.7l0.2-0.4l-0.3-0.3
		l-2.1-2.5l3.4-4.2l2.9,1.6l0.4,0.2l0.4-0.3c0.8-0.5,1.6-1,2.5-1.4l0.4-0.2v-0.4l0.2-3.3l5.4-0.5L80,62l0.1,0.4l0.4,0.1
		c0.9,0.2,1.8,0.5,2.7,0.8l0.4,0.2l0.3-0.3l2.5-2.1l4.2,3.4L89,67.4l-0.2,0.4l0.3,0.4c0.5,0.8,1,1.6,1.4,2.5l0.2,0.4h0.4l3.3,0.2
		l0.5,5.4l-3.1,0.9l-0.4,0.1l-0.1,0.4c-0.2,0.9-0.5,1.8-0.8,2.7l-0.2,0.4l0.3,0.3l2.1,2.5l-3.4,4.2l-2.9-1.6L86,86.5l-0.4,0.3
		c-0.8,0.5-1.6,1-2.5,1.4l-0.4,0.2v0.4L82.5,92l-5.4,0.5l-0.9-3.1L76.1,89l-0.4-0.1c-0.9-0.2-1.8-0.5-2.7-0.8l-0.4-0.2l-0.3,0.3
		l-2.5,2.1l-4.2-3.4l1.6-2.9l0.2-0.4l-0.3-0.4C66.5,82.4,66.1,81.6,65.7,80.7z M78.7,84.2c4.7-0.5,8.1-4.7,7.7-9.4
		c-0.5-4.7-4.7-8.1-9.4-7.7c-4.7,0.5-8.1,4.7-7.7,9.4C69.8,81.3,74,84.7,78.7,84.2z"/>
	<path class="st1" d="M90.4,55.9c1.9,0,3.5-1.6,3.5-3.5c0-1.9-1.6-3.5-3.5-3.5s-3.5,1.6-3.5,3.5C86.9,54.3,88.5,55.9,90.4,55.9z"/>
	<path class="st2" d="M44.6,86.1c1.9,0,3.5-1.6,3.5-3.5s-1.6-3.5-3.5-3.5c-1.9,0-3.5,1.6-3.5,3.5S42.7,86.1,44.6,86.1z"/>
	<path class="st2" d="M75.9,33.9c3.1,0,5.6-2.5,5.6-5.6s-2.5-5.6-5.6-5.6c-3.1,0-5.6,2.5-5.6,5.6S72.8,33.9,75.9,33.9z"/>
	<path class="st1" d="M21,2h70c10.5,0,19,8.5,19,19v70c0,10.5-8.5,19-19,19H21c-10.5,0-19-8.5-19-19V21C2,10.5,10.5,2,21,2z"/>
</g>
</svg>
