<?xml version="1.0" encoding="utf-8"?>
<!-- Generator: Adobe Illustrator 27.8.0, SVG Export Plug-In . SVG Version: 6.00 Build 0)  -->
<svg version="1.1" id="Layer_1" xmlns="http://www.w3.org/2000/svg" xmlns:xlink="http://www.w3.org/1999/xlink" x="0px" y="0px"
	 viewBox="0 0 228 174" style="enable-background:new 0 0 228 174;" xml:space="preserve">
<style type="text/css">
	.st0{fill:url(#SVGID_1_);stroke:#000000;stroke-width:2;stroke-miterlimit:10;}
	.st1{fill:url(#SVGID_00000029746226814144039120000000777262384719976625_);stroke:#000000;stroke-width:2;stroke-miterlimit:10;}
	.st2{fill:url(#SVGID_00000160154258098144229540000001075242679477509808_);stroke:#000000;stroke-width:2;stroke-miterlimit:10;}
	.st3{fill:url(#SVGID_00000043441070841249718750000013324143677615307708_);stroke:#000000;stroke-width:2;stroke-miterlimit:10;}
	.st4{fill:url(#SVGID_00000118390418948760649220000007680716072575581107_);stroke:#000000;stroke-width:2;stroke-miterlimit:10;}
	.st5{fill:url(#SVGID_00000034808932570168692130000014095891312567812486_);stroke:#000000;stroke-width:2;stroke-miterlimit:10;}
	.st6{fill:url(#SVGID_00000160886063890594739870000012280033896208837551_);stroke:#000000;stroke-width:2;stroke-miterlimit:10;}
	.st7{fill:url(#SVGID_00000168821291673861609630000006227086496319796635_);stroke:#000000;stroke-width:2;stroke-miterlimit:10;}
	
		.st8{fill:url(#SVGID_00000020366846767021610710000006920751587168257711_);stroke:url(#SVGID_00000135675349244818236550000000573508989181452220_);stroke-width:3;stroke-miterlimit:10;}
	
		.st9{fill:url(#SVGID_00000183220473637729210040000010414813271990047417_);stroke:url(#SVGID_00000153704329079099191410000005497812738558809237_);stroke-width:3;stroke-miterlimit:10;}
	.st10{fill:url(#SVGID_00000109015012176570393530000007611409089850561444_);}
	.st11{fill:url(#SVGID_00000080166878834037977100000000908659056249157762_);}
	.st12{fill:url(#SVGID_00000001632043510430615370000016306864389081533616_);}
	.st13{fill:url(#SVGID_00000055697606193966680700000011428454270300618893_);}
	.st14{fill:url(#SVGID_00000148627427339527324420000011148932583721525385_);}
	.st15{fill:url(#SVGID_00000178893758630993452290000001770848207591394443_);}
</style>
<g>
	<g>
		<linearGradient id="SVGID_1_" gradientUnits="userSpaceOnUse" x1="114" y1="54.0658" x2="225.6145" y2="54.0658">
			<stop  offset="0" style="stop-color:#000814"/>
			<stop  offset="0.5" style="stop-color:#003A57"/>
			<stop  offset="1" style="stop-color:#00C3EE"/>
		</linearGradient>
		<path class="st0" d="M220.5,5.9c-0.2-0.4-0.8-0.5-1-0.1c-15.3,19.6-55.3,30.9-69.7,37.8c-14.6,7-31.9,14.8-31.9,38.4v14.6
			c0,3.4-3.8,5.4-3.8,5.4c4.4,1.4,8.3,0.1,9.3-3.2c5.6-18.8,7.2-21.6,51.3-29.7c44.1-8,49.6-31.4,50.7-38.9
			C226.3,24.1,224.4,14.9,220.5,5.9z"/>
		
			<linearGradient id="SVGID_00000179624439794997297620000016684545633352388797_" gradientUnits="userSpaceOnUse" x1="114.1175" y1="73.4869" x2="224.7971" y2="73.4869">
			<stop  offset="0" style="stop-color:#000814"/>
			<stop  offset="0.5" style="stop-color:#003A57"/>
			<stop  offset="1" style="stop-color:#00C3EE"/>
		</linearGradient>
		
			<path style="fill:url(#SVGID_00000179624439794997297620000016684545633352388797_);stroke:#000000;stroke-width:2;stroke-miterlimit:10;" d="
			M224,43.9c-0.1-0.4-0.5-0.6-0.9-0.3c-17,13.2-53,14.3-66.6,17c-13.8,2.8-30,5.7-35,25.5l-3.1,12.2c-0.7,2.9-4.3,3.7-4.3,3.7
			c3.4,2.1,7,1.9,8.5-0.7c8.7-14.6,10.7-16.7,49.4-14c38.7,2.6,48.3-15.9,50.9-22C225,60.4,225.4,52.3,224,43.9z"/>
		
			<linearGradient id="SVGID_00000167394835205018483460000018164239327698998960_" gradientUnits="userSpaceOnUse" x1="114.2252" y1="93.1014" x2="217.3721" y2="93.1014">
			<stop  offset="0" style="stop-color:#000814"/>
			<stop  offset="0.5" style="stop-color:#003A57"/>
			<stop  offset="1" style="stop-color:#00C3EE"/>
		</linearGradient>
		
			<path style="fill:url(#SVGID_00000167394835205018483460000018164239327698998960_);stroke:#000000;stroke-width:2;stroke-miterlimit:10;" d="
			M217.4,80.5c0.1-0.4-0.2-0.6-0.6-0.5c-17.3,6.9-45.4-1.1-56.7-2.1c-11.5-1-24.9-2.6-35.1,12.8l-6.3,9.5c-1.5,2.2-4.5,2-4.5,2
			c2,2.6,4.8,3.3,6.8,1.5c11.4-10.1,13.5-11.3,42.5,0.4c29,11.7,42.3-1.4,46.2-5.9C212.9,94.6,215.8,87.9,217.4,80.5z"/>
		
			<linearGradient id="SVGID_00000011711705145757994110000014898835824393736841_" gradientUnits="userSpaceOnUse" x1="114.3183" y1="107.0183" x2="204.0717" y2="107.0183">
			<stop  offset="0" style="stop-color:#000814"/>
			<stop  offset="0.5" style="stop-color:#003A57"/>
			<stop  offset="1" style="stop-color:#00C3EE"/>
		</linearGradient>
		
			<path style="fill:url(#SVGID_00000011711705145757994110000014898835824393736841_);stroke:#000000;stroke-width:2;stroke-miterlimit:10;" d="
			M204,108.1c0.2-0.3,0-0.5-0.3-0.5c-16.2,1.6-35.6-11.1-44.3-14.4c-8.8-3.4-18.8-7.7-32.4,2.3l-8.4,6.2c-2,1.5-4.3,0.6-4.3,0.6
			c0.6,2.5,2.6,3.7,4.8,2.7c12.7-5.5,14.8-6,33.6,9.9c18.8,15.9,34.1,8.4,38.8,5.7C195.4,118.3,200.1,113.7,204,108.1z"/>
	</g>
	<g>
		
			<linearGradient id="SVGID_00000140692479602513355250000014754870817274905233_" gradientUnits="userSpaceOnUse" x1="13557.3418" y1="54.0658" x2="13668.9561" y2="54.0658" gradientTransform="matrix(-1 0 0 1 13671.3418 0)">
			<stop  offset="0" style="stop-color:#000814"/>
			<stop  offset="0.5" style="stop-color:#003A57"/>
			<stop  offset="1" style="stop-color:#00C3EE"/>
		</linearGradient>
		
			<path style="fill:url(#SVGID_00000140692479602513355250000014754870817274905233_);stroke:#000000;stroke-width:2;stroke-miterlimit:10;" d="
			M7.5,5.9c0.2-0.4,0.8-0.5,1-0.1c15.3,19.6,55.3,30.9,69.7,37.8c14.6,7,31.9,14.8,31.9,38.4v14.6c0,3.4,3.8,5.4,3.8,5.4
			c-4.4,1.4-8.3,0.1-9.3-3.2C99.1,80,97.4,77.2,53.3,69.2C9.2,61.2,3.7,37.8,2.6,30.3C1.7,24.1,3.6,14.9,7.5,5.9z"/>
		
			<linearGradient id="SVGID_00000080897963752475930770000014728897023293107882_" gradientUnits="userSpaceOnUse" x1="13557.459" y1="73.4869" x2="13668.1387" y2="73.4869" gradientTransform="matrix(-1 0 0 1 13671.3418 0)">
			<stop  offset="0" style="stop-color:#000814"/>
			<stop  offset="0.5" style="stop-color:#003A57"/>
			<stop  offset="1" style="stop-color:#00C3EE"/>
		</linearGradient>
		
			<path style="fill:url(#SVGID_00000080897963752475930770000014728897023293107882_);stroke:#000000;stroke-width:2;stroke-miterlimit:10;" d="
			M4,43.9c0.1-0.4,0.5-0.6,0.9-0.3c17,13.2,53,14.3,66.6,17c13.8,2.8,30,5.7,35,25.5l3.1,12.2c0.7,2.9,4.3,3.7,4.3,3.7
			c-3.4,2.1-7,1.9-8.5-0.7c-8.7-14.6-10.7-16.7-49.4-14C17.2,90,7.6,71.5,5.1,65.4C3,60.4,2.6,52.3,4,43.9z"/>
		
			<linearGradient id="SVGID_00000085249884631613106490000018408743874117778823_" gradientUnits="userSpaceOnUse" x1="13557.5674" y1="93.1014" x2="13660.7139" y2="93.1014" gradientTransform="matrix(-1 0 0 1 13671.3418 0)">
			<stop  offset="0" style="stop-color:#000814"/>
			<stop  offset="0.5" style="stop-color:#003A57"/>
			<stop  offset="1" style="stop-color:#00C3EE"/>
		</linearGradient>
		
			<path style="fill:url(#SVGID_00000085249884631613106490000018408743874117778823_);stroke:#000000;stroke-width:2;stroke-miterlimit:10;" d="
			M10.6,80.5c-0.1-0.4,0.2-0.6,0.6-0.5c17.3,6.9,45.4-1.1,56.7-2.1c11.5-1,24.9-2.6,35.1,12.8l6.3,9.5c1.5,2.2,4.5,2,4.5,2
			c-2,2.6-4.8,3.3-6.8,1.5c-11.4-10.1-13.5-11.3-42.5,0.4c-29,11.7-42.3-1.4-46.2-5.9C15.1,94.6,12.2,87.9,10.6,80.5z"/>
		
			<linearGradient id="SVGID_00000178166133547641876370000011888547048985451147_" gradientUnits="userSpaceOnUse" x1="13557.6602" y1="107.0183" x2="13647.4131" y2="107.0183" gradientTransform="matrix(-1 0 0 1 13671.3418 0)">
			<stop  offset="0" style="stop-color:#000814"/>
			<stop  offset="0.5" style="stop-color:#003A57"/>
			<stop  offset="1" style="stop-color:#00C3EE"/>
		</linearGradient>
		
			<path style="fill:url(#SVGID_00000178166133547641876370000011888547048985451147_);stroke:#000000;stroke-width:2;stroke-miterlimit:10;" d="
			M24,108.1c-0.2-0.3,0-0.5,0.3-0.5c16.2,1.6,35.6-11.1,44.3-14.4c8.8-3.4,18.8-7.7,32.4,2.3l8.4,6.2c2,1.5,4.3,0.6,4.3,0.6
			c-0.6,2.5-2.6,3.7-4.8,2.7c-12.7-5.5-14.8-6-33.6,9.9c-18.8,15.9-34.1,8.4-38.8,5.7C32.6,118.3,27.9,113.7,24,108.1z"/>
	</g>
	<g>
		
			<linearGradient id="SVGID_00000080205541126706996830000007374524022767571340_" gradientUnits="userSpaceOnUse" x1="40.8818" y1="87" x2="187.6626" y2="87">
			<stop  offset="0" style="stop-color:#000814"/>
			<stop  offset="0.9987" style="stop-color:#003A57"/>
		</linearGradient>
		
			<linearGradient id="SVGID_00000071518429838385982900000013146613730378987938_" gradientUnits="userSpaceOnUse" x1="39.3951" y1="130.1999" x2="189.1706" y2="43.727">
			<stop  offset="0" style="stop-color:#00ADD9"/>
			<stop  offset="0.5" style="stop-color:#00C3EE"/>
			<stop  offset="1" style="stop-color:#7FDDFF"/>
		</linearGradient>
		
			<path style="fill:url(#SVGID_00000080205541126706996830000007374524022767571340_);stroke:url(#SVGID_00000071518429838385982900000013146613730378987938_);stroke-width:3;stroke-miterlimit:10;" d="
			M40.9,44.6l73.4-42.3l73.4,42.3v84.7l-73.4,42.4l-73.4-42.4L40.9,44.6z"/>
		
			<linearGradient id="SVGID_00000147913210862427000490000015505022452505242024_" gradientUnits="userSpaceOnUse" x1="114.2722" y1="164.7" x2="114.2722" y2="9.3">
			<stop  offset="0" style="stop-color:#000814"/>
			<stop  offset="0.9987" style="stop-color:#003A57"/>
		</linearGradient>
		
			<linearGradient id="SVGID_00000031184891214515936630000013587966315261474473_" gradientUnits="userSpaceOnUse" x1="45.4844" y1="126.6867" x2="183.0795" y2="47.2461">
			<stop  offset="0" style="stop-color:#00ADD9"/>
			<stop  offset="0.5" style="stop-color:#00C3EE"/>
			<stop  offset="1" style="stop-color:#7FDDFF"/>
		</linearGradient>
		
			<path style="fill:url(#SVGID_00000147913210862427000490000015505022452505242024_);stroke:url(#SVGID_00000031184891214515936630000013587966315261474473_);stroke-width:3;stroke-miterlimit:10;" d="
			M47,48.1l67.3-38.8l67.3,38.8v77.7l-67.3,38.9L47,125.8L47,48.1z"/>
		<g>
			
				<linearGradient id="SVGID_00000097489266361686302210000009456080125720574593_" gradientUnits="userSpaceOnUse" x1="114.3178" y1="55.8998" x2="114.3178" y2="74.9994">
				<stop  offset="0" style="stop-color:#00ADD9"/>
				<stop  offset="0.505" style="stop-color:#00C3EE"/>
				<stop  offset="1" style="stop-color:#7FDDFF"/>
			</linearGradient>
			<polygon style="fill:url(#SVGID_00000097489266361686302210000009456080125720574593_);" points="108.1,55.9 99.2,75 129.5,75 
				120.6,55.9 			"/>
			
				<linearGradient id="SVGID_00000128484346873958395750000003272206122876974209_" gradientUnits="userSpaceOnUse" x1="85.6366" y1="72.4203" x2="94.7164" y2="56.0398">
				<stop  offset="0" style="stop-color:#00ADD9"/>
				<stop  offset="0.5" style="stop-color:#00C3EE"/>
				<stop  offset="1" style="stop-color:#7FDDFF"/>
			</linearGradient>
			<polygon style="fill:url(#SVGID_00000128484346873958395750000003272206122876974209_);" points="95.9,75 104.8,55.9 87.9,55.9 
				72.6,75 			"/>
			
				<linearGradient id="SVGID_00000064352318657125997570000018049007637099528586_" gradientUnits="userSpaceOnUse" x1="84.576" y1="78.5462" x2="108.5244" y2="118.403">
				<stop  offset="0" style="stop-color:#02749A"/>
				<stop  offset="0.495" style="stop-color:#00C3EE"/>
				<stop  offset="1" style="stop-color:#7FDDFF"/>
			</linearGradient>
			<polygon style="fill:url(#SVGID_00000064352318657125997570000018049007637099528586_);" points="72.7,78 110.4,120.6 95.7,78 
							"/>
			
				<linearGradient id="SVGID_00000176754056467988773320000008948869787171304323_" gradientUnits="userSpaceOnUse" x1="134.0508" y1="54.6309" x2="144.1047" y2="74.3628">
				<stop  offset="0" style="stop-color:#7FDDFF"/>
				<stop  offset="0.495" style="stop-color:#00C3EE"/>
				<stop  offset="1" style="stop-color:#02749A"/>
			</linearGradient>
			<polygon style="fill:url(#SVGID_00000176754056467988773320000008948869787171304323_);" points="156.1,75 140.7,55.9 
				123.9,55.9 132.8,75 			"/>
			
				<linearGradient id="SVGID_00000052784272780648241730000009849542972736608384_" gradientUnits="userSpaceOnUse" x1="144.1536" y1="78.3755" x2="119.1751" y2="118.3494">
				<stop  offset="0" style="stop-color:#02749A"/>
				<stop  offset="0.505" style="stop-color:#00C3EE"/>
				<stop  offset="1" style="stop-color:#7FDDFF"/>
			</linearGradient>
			<polygon style="fill:url(#SVGID_00000052784272780648241730000009849542972736608384_);" points="155.9,78 132.9,78 118.2,120.6 
							"/>
			
				<linearGradient id="SVGID_00000150804203363294957230000009712002714826430866_" gradientUnits="userSpaceOnUse" x1="114.3178" y1="77.9158" x2="114.3178" y2="122.6982">
				<stop  offset="0" style="stop-color:#7FDDFF"/>
				<stop  offset="0.5" style="stop-color:#00C3EE"/>
				<stop  offset="1" style="stop-color:#02749A"/>
			</linearGradient>
			<polygon style="fill:url(#SVGID_00000150804203363294957230000009712002714826430866_);" points="129.7,78 98.9,78 114.3,122.7 
							"/>
		</g>
	</g>
</g>
</svg>
