<svg width="160" height="26" viewBox="0 0 160 26" fill="none" xmlns="http://www.w3.org/2000/svg">
<g clip-path="url(#clip0_4640_4676)">
<path d="M51.1618 7.30802C49.3385 7.30675 47.5592 7.86718 46.0657 8.91307V0H42.2236V25.1342H46.0407V23.5341C47.1877 24.3333 48.5067 24.8515 49.891 25.0468C51.2754 25.242 52.6862 25.1089 54.0096 24.6582C55.333 24.2074 56.5318 23.4517 57.5091 22.4521C58.4865 21.4524 59.2149 20.2369 59.6357 18.9037C60.0565 17.5705 60.1578 16.157 59.9313 14.7774C59.7049 13.3978 59.1571 12.0909 58.3322 10.9621C57.5073 9.83336 56.4285 8.91448 55.1829 8.27971C53.9373 7.64493 52.5598 7.31207 51.1618 7.30802ZM51.1618 21.3171C50.154 21.3221 49.1675 21.0279 48.3271 20.4717C47.4867 19.9155 46.8302 19.1225 46.4409 18.193C46.0516 17.2634 45.9469 16.2393 46.1401 15.2502C46.3333 14.2611 46.8157 13.3516 47.5262 12.6369C48.2366 11.9222 49.1433 11.4345 50.1312 11.2354C51.1191 11.0364 52.1438 11.135 53.0756 11.5188C54.0075 11.9026 54.8044 12.5544 55.3655 13.3914C55.9267 14.2285 56.2267 15.2133 56.2277 16.2211C56.2278 17.5674 55.695 18.8591 54.7458 19.8139C53.7966 20.7688 52.5081 21.3092 51.1618 21.3171Z" fill="white"/>
<path d="M63.4507 7.30812H67.2727V25.1343H63.4507V7.30812ZM63.4507 1.58008H67.2727V5.40212H63.4507V1.58008Z" fill="white"/>
<path d="M81.8782 21.3169H78.9189C77.8606 21.3169 77.2286 20.4592 77.2286 19.4059V11.1298H82.5353L81.191 7.3128H77.2436V2.18164L73.4015 3.51083V7.29274H70.2466V11.1098H73.4115V20.6398C73.4109 21.2249 73.5256 21.8044 73.7492 22.345C73.9728 22.8857 74.3009 23.377 74.7146 23.7907C75.1284 24.2044 75.6196 24.5325 76.1603 24.7561C76.701 24.9797 77.2805 25.0945 77.8656 25.0938H81.8782V21.3169Z" fill="white"/>
<path d="M97.8789 7.3125L92.7527 20.4288L87.6266 7.3125H83.8096L90.7865 25.1336H94.7591L101.721 7.3125H97.8789Z" fill="white"/>
<path d="M111.471 21.3158C110.464 21.3148 109.481 21.0155 108.644 20.4557C107.808 19.8959 107.156 19.1007 106.771 18.1707C106.386 17.2406 106.286 16.2174 106.483 15.2303C106.679 14.2432 107.164 13.3365 107.876 12.6248C108.587 11.9131 109.494 11.4284 110.481 11.2318C111.468 11.0352 112.492 11.1356 113.422 11.5203C114.352 11.905 115.147 12.5567 115.707 13.3932C116.266 14.2296 116.566 15.2132 116.567 16.2197C116.567 16.8891 116.436 17.5521 116.18 18.1707C115.924 18.7892 115.549 19.3513 115.076 19.8246C114.602 20.298 114.04 20.6733 113.422 20.9292C112.803 21.1851 112.14 21.3164 111.471 21.3158ZM116.567 8.9117C115.283 8.01623 113.787 7.47442 112.228 7.34073C110.669 7.20705 109.102 7.4862 107.685 8.15013C106.268 8.81407 105.05 9.83937 104.155 11.123C103.26 12.4065 102.719 13.9032 102.586 15.4623C102.452 17.0215 102.732 18.5883 103.396 20.0051C104.061 21.422 105.086 22.6389 106.37 23.5337C107.654 24.4284 109.151 24.9694 110.71 25.1021C112.269 25.2349 113.836 24.9549 115.253 24.2901C115.711 24.075 116.151 23.8216 116.567 23.5327V25.1328H120.379V7.30664H116.567V8.9117Z" fill="white"/>
<path d="M140.818 7.30664H137.001L131.875 20.423L126.754 7.30664H122.932L129.909 25.1328H133.872L140.818 7.30664Z" fill="white"/>
<path d="M150.595 21.3158C149.588 21.3158 148.604 21.0173 147.767 20.4581C146.93 19.8989 146.277 19.1041 145.892 18.1741C145.506 17.2442 145.405 16.2208 145.601 15.2334C145.797 14.2459 146.282 13.3388 146.993 12.6266C147.705 11.9144 148.611 11.4291 149.599 11.2321C150.586 11.0351 151.609 11.1352 152.54 11.5198C153.47 11.9043 154.265 12.5561 154.825 13.3927C155.385 14.2292 155.685 15.213 155.686 16.2197C155.687 16.8887 155.555 17.5513 155.3 18.1695C155.044 18.7878 154.669 19.3496 154.197 19.8229C153.724 20.2961 153.162 20.6716 152.544 20.9278C151.926 21.1839 151.264 21.3158 150.595 21.3158ZM150.595 7.30664C148.832 7.30565 147.108 7.82755 145.642 8.80633C144.175 9.7851 143.032 11.1768 142.357 12.8054C141.681 14.4339 141.504 16.2262 141.847 17.9555C142.191 19.6848 143.039 21.2734 144.286 22.5204C145.532 23.7674 147.12 24.6168 148.849 24.9612C150.578 25.3055 152.371 25.1293 154 24.4548C155.629 23.7803 157.021 22.6379 158 21.1721C158.98 19.7062 159.503 17.9828 159.503 16.2197C159.503 13.8558 158.564 11.5887 156.892 9.91722C155.221 8.24569 152.954 7.30664 150.59 7.30664H150.595Z" fill="white"/>
<path fill-rule="evenodd" clip-rule="evenodd" d="M14.0141 1.64258H23.5141L9.49992 25.1516H0L14.0141 1.64258Z" fill="white"/>
<path fill-rule="evenodd" clip-rule="evenodd" d="M22.7322 13.3223H32.2321L25.21 25.1545H15.7251L22.7322 13.3223Z" fill="white"/>
</g>
<defs>
<clipPath id="clip0_4640_4676">
<rect width="159.507" height="25.1542" fill="white"/>
</clipPath>
</defs>
</svg>
