<?xml version="1.0" encoding="utf-8"?>
<!-- Generator: Adobe Illustrator 27.8.0, SVG Export Plug-In . SVG Version: 6.00 Build 0)  -->
<svg version="1.1" id="Layer_1" xmlns="http://www.w3.org/2000/svg" xmlns:xlink="http://www.w3.org/1999/xlink" x="0px" y="0px"
	 viewBox="0 0 215 24" style="enable-background:new 0 0 215 24;" xml:space="preserve">
<style type="text/css">
	.st0{fill:#FFFFFF;}
	.st1{fill-rule:evenodd;clip-rule:evenodd;fill:#FE1926;}
	.st2{fill-rule:evenodd;clip-rule:evenodd;fill:#4CEE98;}
</style>
<path class="st0" d="M52.2,9.6v7.9c0,0.5,0.1,0.9,0.4,1.2c0.3,0.2,0.7,0.3,1.3,0.3h1.8v2.5h-2.3c-1.3,0-2.3-0.3-3-0.9
	c-0.7-0.6-1.1-1.6-1.1-3v-8h-1.7V7.2h1.7V3.7h3v3.5h3.5v2.4H52.2z"/>
<path class="st0" d="M61.4,9.3c0.4-0.7,1-1.3,1.7-1.7S64.7,7,65.7,7v3H65c-1.2,0-2,0.3-2.6,0.9c-0.6,0.6-0.9,1.6-0.9,3v7.5h-2.9V7.2
	h2.9L61.4,9.3L61.4,9.3z"/>
<path class="st0" d="M67.5,14.3c0-1.4,0.3-2.7,0.9-3.8s1.4-2,2.4-2.6S73,7,74.2,7c1.1,0,2.1,0.2,2.9,0.7c0.8,0.4,1.5,1,2,1.6V7.2h3
	v14.2h-3v-2.1c-0.5,0.7-1.2,1.2-2,1.7c-0.9,0.4-1.8,0.7-2.9,0.7c-1.2,0-2.3-0.3-3.4-0.9c-1-0.6-1.8-1.5-2.4-2.6
	C67.8,17,67.5,15.7,67.5,14.3z M79.2,14.3c0-1-0.2-1.8-0.6-2.6C78.2,11,77.7,10.4,77,10s-1.4-0.6-2.1-0.6c-0.8,0-1.5,0.2-2.1,0.6
	c-0.7,0.4-1.2,0.9-1.6,1.6c-0.4,0.7-0.6,1.5-0.6,2.5s0.2,1.8,0.6,2.6c0.4,0.7,0.9,1.3,1.6,1.7c0.7,0.4,1.4,0.6,2.1,0.6
	c0.8,0,1.5-0.2,2.1-0.6c0.7-0.4,1.2-0.9,1.6-1.7C78.9,16.2,79.2,15.3,79.2,14.3z"/>
<path class="st0" d="M85.1,14.3c0-1.4,0.3-2.7,0.9-3.8s1.4-2,2.4-2.6S90.6,7,91.8,7c0.9,0,1.8,0.2,2.7,0.6s1.6,0.9,2.2,1.6V2.3h3
	v19.1h-3v-2.1c-0.5,0.7-1.2,1.3-2,1.7c-0.8,0.4-1.8,0.7-2.9,0.7c-1.2,0-2.4-0.3-3.4-0.9c-1-0.6-1.8-1.5-2.4-2.6
	C85.4,17,85.1,15.7,85.1,14.3z M96.8,14.3c0-1-0.2-1.8-0.6-2.6c-0.4-0.7-0.9-1.3-1.6-1.7c-0.7-0.4-1.4-0.6-2.1-0.6
	c-0.8,0-1.5,0.2-2.1,0.6c-0.7,0.4-1.2,0.9-1.6,1.6c-0.4,0.7-0.6,1.5-0.6,2.5s0.2,1.8,0.6,2.6c0.4,0.7,0.9,1.3,1.6,1.7
	c0.7,0.4,1.4,0.6,2.1,0.6c0.8,0,1.5-0.2,2.1-0.6c0.7-0.4,1.2-0.9,1.6-1.7C96.6,16.2,96.8,15.3,96.8,14.3z"/>
<path class="st0" d="M116.8,14c0,0.5,0,1-0.1,1.4h-10.9c0.1,1.1,0.5,2,1.3,2.7s1.7,1,2.8,1c1.6,0,2.7-0.7,3.4-2h3.2
	c-0.4,1.3-1.2,2.4-2.3,3.2c-1.1,0.8-2.5,1.2-4.2,1.2c-1.4,0-2.6-0.3-3.7-0.9c-1.1-0.6-1.9-1.5-2.5-2.6c-0.6-1.1-0.9-2.4-0.9-3.9
	s0.3-2.7,0.9-3.8c0.6-1.1,1.4-2,2.5-2.6c1.1-0.6,2.3-0.9,3.7-0.9c1.3,0,2.5,0.3,3.6,0.9s1.9,1.4,2.5,2.5
	C116.5,11.4,116.8,12.6,116.8,14z M113.7,13c0-1.1-0.4-2-1.2-2.6c-0.8-0.7-1.7-1-2.8-1c-1,0-1.9,0.3-2.6,1c-0.7,0.6-1.2,1.5-1.3,2.6
	H113.7z"/>
<path class="st0" d="M123.2,9.6v7.9c0,0.5,0.1,0.9,0.4,1.2c0.3,0.2,0.7,0.3,1.3,0.3h1.8v2.5h-2.3c-1.3,0-2.3-0.3-3-0.9
	c-0.7-0.6-1.1-1.6-1.1-3v-8h-1.7V7.2h1.7V3.7h3v3.5h3.5v2.4H123.2z"/>
<path class="st0" d="M135.7,21.7c-1.3,0-2.6-0.3-3.6-0.9c-1.1-0.6-1.9-1.5-2.6-2.6c-0.6-1.1-0.9-2.4-0.9-3.9c0-1.4,0.3-2.7,1-3.8
	c0.6-1.1,1.5-2,2.6-2.6c1.1-0.6,2.3-0.9,3.7-0.9c1.4,0,2.6,0.3,3.7,0.9c1.1,0.6,2,1.5,2.6,2.6c0.6,1.1,1,2.4,1,3.8s-0.3,2.7-1,3.8
	s-1.5,2-2.7,2.6C138.3,21.4,137.1,21.7,135.7,21.7z M135.7,19.1c0.8,0,1.5-0.2,2.1-0.5c0.7-0.4,1.2-0.9,1.6-1.6
	c0.4-0.7,0.6-1.6,0.6-2.6s-0.2-1.9-0.6-2.6c-0.4-0.7-0.9-1.3-1.6-1.6c-0.7-0.4-1.4-0.5-2.1-0.5c-0.8,0-1.5,0.2-2.1,0.5
	c-0.6,0.4-1.1,0.9-1.5,1.6c-0.4,0.7-0.6,1.6-0.6,2.6c0,1.5,0.4,2.7,1.2,3.6C133.5,18.7,134.5,19.1,135.7,19.1z"/>
<path class="st0" d="M163.4,7c1.1,0,2.1,0.2,3,0.7s1.6,1.2,2.1,2.1c0.5,0.9,0.8,2,0.8,3.3v8.4h-2.9v-8c0-1.3-0.3-2.2-1-2.9
	c-0.6-0.7-1.5-1-2.6-1c-1.1,0-2,0.3-2.6,1c-0.6,0.7-1,1.6-1,2.9v8h-2.9v-8c0-1.3-0.3-2.2-1-2.9c-0.6-0.7-1.5-1-2.6-1
	c-1.1,0-2,0.3-2.6,1c-0.6,0.7-1,1.6-1,2.9v8h-2.9V7.2h2.9v1.6c0.5-0.6,1.1-1,1.8-1.4c0.7-0.3,1.5-0.5,2.4-0.5c1.1,0,2.2,0.2,3,0.7
	c0.8,0.5,1.6,1.2,2.1,2.1c0.4-0.9,1.1-1.5,2-2S162.3,7,163.4,7z"/>
<path class="st0" d="M172.1,14.3c0-1.4,0.3-2.7,0.9-3.8s1.4-2,2.4-2.6s2.2-0.9,3.4-0.9c1.1,0,2.1,0.2,2.9,0.7c0.8,0.4,1.5,1,2,1.6
	V7.2h3v14.2h-3v-2.1c-0.5,0.7-1.2,1.2-2,1.7c-0.9,0.4-1.8,0.7-2.9,0.7c-1.2,0-2.3-0.3-3.4-0.9c-1-0.6-1.8-1.5-2.4-2.6
	C172.4,17,172.1,15.7,172.1,14.3z M183.7,14.3c0-1-0.2-1.8-0.6-2.6c-0.4-0.7-0.9-1.3-1.6-1.7s-1.4-0.6-2.1-0.6
	c-0.7,0-1.5,0.2-2.1,0.6c-0.7,0.4-1.2,0.9-1.6,1.6c-0.4,0.7-0.6,1.5-0.6,2.5s0.2,1.8,0.6,2.6c0.4,0.7,0.9,1.3,1.6,1.7
	s1.4,0.6,2.1,0.6c0.8,0,1.5-0.2,2.1-0.6c0.7-0.4,1.2-0.9,1.6-1.7C183.5,16.2,183.7,15.3,183.7,14.3z"/>
<path class="st0" d="M194.1,9.6v7.9c0,0.5,0.1,0.9,0.4,1.2c0.3,0.2,0.7,0.3,1.3,0.3h1.8v2.5h-2.3c-1.3,0-2.3-0.3-3-0.9
	c-0.7-0.6-1.1-1.6-1.1-3v-8h-1.7V7.2h1.7V3.7h3v3.5h3.5v2.4H194.1z"/>
<path class="st0" d="M206.6,21.7c-1.3,0-2.6-0.3-3.6-0.9c-1.1-0.6-1.9-1.5-2.6-2.6c-0.6-1.1-0.9-2.4-0.9-3.9c0-1.4,0.3-2.7,1-3.8
	c0.6-1.1,1.5-2,2.6-2.6c1.1-0.6,2.3-0.9,3.7-0.9c1.4,0,2.6,0.3,3.7,0.9s2,1.5,2.6,2.6c0.6,1.1,1,2.4,1,3.8s-0.3,2.7-1,3.8
	c-0.7,1.1-1.5,2-2.7,2.6C209.2,21.4,208,21.7,206.6,21.7z M206.6,19.1c0.8,0,1.5-0.2,2.1-0.5c0.7-0.4,1.2-0.9,1.6-1.6
	c0.4-0.7,0.6-1.6,0.6-2.6s-0.2-1.9-0.6-2.6c-0.4-0.7-0.9-1.3-1.6-1.6c-0.7-0.4-1.4-0.5-2.1-0.5c-0.7,0-1.5,0.2-2.1,0.5
	c-0.6,0.4-1.1,0.9-1.5,1.6s-0.6,1.6-0.6,2.6c0,1.5,0.4,2.7,1.2,3.6C204.4,18.7,205.4,19.1,206.6,19.1z"/>
<path class="st1" d="M13.7,17c-0.1,0-0.2,0-0.3,0.1l-5.8,5.3c-0.3,0.2-0.2,0.7,0.1,0.8C9,23.7,10.5,24,12,24h14c6.6,0,12-5.4,12-12
	c0-3.2-1.2-6-3.2-8.2c-0.2-0.2-0.5-0.2-0.7,0l-5,4.5C28.9,8.5,28.9,8.8,29,9c0.6,0.8,1,1.8,1,3c0,2.8-2.2,5-5,5H13.7z"/>
<path class="st2" d="M8.9,15.7C9.1,15.5,9.2,15.2,9,15c-0.6-0.8-1-1.9-1-3c0-2.8,2.2-5,5-5h11.4c0.1,0,0.2,0,0.3-0.1l5.8-5.2
	c0.3-0.2,0.2-0.7-0.1-0.8C29,0.3,27.6,0,26,0H12C5.4,0,0,5.4,0,12c0,3.2,1.2,6.1,3.2,8.2c0.2,0.2,0.5,0.2,0.7,0L8.9,15.7z"/>
</svg>
