<?xml version="1.0" encoding="utf-8"?>
<!-- Generator: Adobe Illustrator 27.8.0, SVG Export Plug-In . SVG Version: 6.00 Build 0)  -->
<svg version="1.1" id="Layer_1" xmlns="http://www.w3.org/2000/svg" xmlns:xlink="http://www.w3.org/1999/xlink" x="0px" y="0px"
	 viewBox="0 0 180 180" style="enable-background:new 0 0 180 180;" xml:space="preserve">
<style type="text/css">
	.st0{fill:none;stroke:#4CEE98;stroke-width:2;stroke-miterlimit:10;}
</style>
<path class="st0" d="M24.9,98.2v13.2c0,2.3,1.2,4.7,3.7,5.9l54.5,27.1c4.3,2.2,9.5,2.2,13.8,0l54.5-27.1c2.4-1.2,3.7-3.5,3.7-5.9
	V98.2 M24.9,112v13.2c0,2.3,1.2,4.7,3.7,5.9l54.5,27.1c4.3,2.2,9.5,2.2,13.8,0l54.5-27.1c2.4-1.2,3.7-3.5,3.7-5.9v-13.1 M132.8,83.2
	l18.6,9.3c4.9,2.4,4.9,9.4,0,11.8l-54.5,27.2c-4.3,2.2-9.5,2.2-13.8,0l-54.5-27.2c-4.9-2.4-4.9-9.4,0-11.8l18.6-9.3 M55.8,87.2
	l-12.9,6.5c-3.7,1.9-3.7,7.2,0,9.1l41.8,21c3.3,1.7,7.2,1.7,10.6,0l41.8-21c3.7-1.9,3.7-7.2,0-9.1l-12.9-6.5 M24.9,54.8V68
	c0,2.3,1.2,4.7,3.7,5.9l54.5,27c4.3,2.2,9.5,2.2,13.8,0l54.5-27c2.4-1.2,3.7-3.5,3.7-5.9V54.8 M30.3,124.9l3.7,1.9 M83.8,151.7
	l-39.5-19.8 M40.2,129.9l-3.1-1.5 M30.3,111.8l3.7,1.9 M83.8,138.5l-39.5-19.8 M40.2,116.8l-3.1-1.5 M30.3,68.1l3.7,1.8 M83.8,94.8
	L44.3,75.1 M40.2,73l-3.1-1.5 M28.6,48.9l54.5-27.2c4.3-2.2,9.5-2.2,13.8,0l54.5,27.2c4.9,2.4,4.9,9.4,0,11.8L96.9,87.9
	c-4.3,2.2-9.5,2.2-13.8,0L28.6,60.8C23.7,58.3,23.7,51.4,28.6,48.9z M42.9,50.3l41.8-21c3.3-1.7,7.2-1.7,10.6,0l41.8,21
	c3.7,1.9,3.7,7.2,0,9.1l-41.8,21c-3.3,1.7-7.2,1.7-10.6,0l-41.8-21C39.2,57.5,39.2,52.1,42.9,50.3z"/>
</svg>
